<svg xmlns="http://www.w3.org/2000/svg" viewBox="0 0 68.9 75.5"><title>Recurso 32@1x-</title><g id="Capa_2" data-name="Capa 2"><g id="ICONS"><path d="M44.76,75.25c-5.94-1-24.52-5.67-18.53-22.35,0,0,8.65-22.48,33.94-17,0,0,8.68,2.59,8.48,10.47,0,0-3.06,26-55.79,3.15,0,0-41.48-30.22,30.89-49.27" style="fill:none;stroke:#449cc9;stroke-linecap:round;stroke-width:0.5px;stroke-dasharray:1.1380000114440918,1.1380000114440918;opacity:0.43"/><path d="M54.6,15a1.34,1.34,0,1,1-1.34-1.35A1.34,1.34,0,0,1,54.6,15M4,53.9a1.55,1.55,0,1,1-1.55-1.57A1.55,1.55,0,0,1,4,53.9" style="fill:#d8e2e8;fill-rule:evenodd"/><polygon points="2.87 11.61 1.79 11.61 1.79 10.52 1.08 10.52 1.08 11.61 0 11.61 0 12.33 1.08 12.33 1.08 13.42 1.79 13.42 1.79 12.33 2.87 12.33 2.87 11.61" style="fill:#d8e2e8;fill-rule:evenodd"/><polygon points="56.75 41.24 55.36 41.24 55.36 39.83 54.42 39.83 54.42 41.24 53.03 41.24 53.03 42.18 54.42 42.18 54.42 43.59 55.36 43.59 55.36 42.18 56.75 42.18 56.75 41.24" style="fill:#d8e2e8;fill-rule:evenodd"/><polygon points="22.57 63.84 21.49 63.84 21.49 62.75 20.77 62.75 20.77 63.84 19.7 63.84 19.7 64.56 20.77 64.56 20.77 65.65 21.49 65.65 21.49 64.56 22.57 64.56 22.57 63.84" style="fill:#d8e2e8;fill-rule:evenodd"/><path d="M30.69,29.42a4.48,4.48,0,0,1-2.17-.55,5.31,5.31,0,0,1-2.4-3.26.83.83,0,0,1,.63-1,.82.82,0,0,1,1,.63,3.77,3.77,0,0,0,1.62,2.21,3.32,3.32,0,0,0,2.64.11,5.6,5.6,0,0,0,2.32-1.33c1.37-1.22,2.28-1.5,6.69.51a.86.86,0,1,1-.71,1.57c-3.82-1.73-4.13-1.45-4.88-.79a7,7,0,0,1-3,1.7A8.3,8.3,0,0,1,30.69,29.42Z" style="fill:#449cc9;fill-rule:evenodd"/><path d="M18.13,48.75H18a.85.85,0,0,1-.7-1c.43-2.95,3.07-6.85,6.14-7.71a4.37,4.37,0,0,1,4.68,1.57A6.76,6.76,0,0,0,33.32,44a6.62,6.62,0,0,0,4.1-1.37.84.84,0,1,1,1,1.33,8.47,8.47,0,0,1-5.12,1.7,8.67,8.67,0,0,1-6.49-3,2.62,2.62,0,0,0-2.91-1C21.56,42.33,19.35,45.6,19,48a.85.85,0,0,1-.87.75Zm25-6.62a.83.83,0,0,1-.27,0,3.49,3.49,0,0,0-1.18-.24.87.87,0,1,1,0-1.73,6.21,6.21,0,0,1,1.73.31.86.86,0,0,1,.51,1.1A.8.8,0,0,1,43.16,42.13Z" style="fill:#449cc9;fill-rule:evenodd"/><path d="M33.28,38.08a8.48,8.48,0,1,1,8.51-8.46,8.48,8.48,0,0,1-8.51,8.46Zm0-15.27a6.79,6.79,0,1,0,6.81,6.81A6.8,6.8,0,0,0,33.28,22.81Z" style="fill:#449cc9;fill-rule:evenodd"/><path d="M33.28,55.52a21.26,21.26,0,1,1,21.3-21.26,20.89,20.89,0,0,1-1.07,6.58.85.85,0,1,1-1.61-.52,19.86,19.86,0,0,0,1-6.06,19.58,19.58,0,1,0-19.6,19.56A19.08,19.08,0,0,0,39,53a.84.84,0,0,1,.51,1.61A21.2,21.2,0,0,1,33.28,55.52Z" style="fill:#449cc9;fill-rule:evenodd"/><path d="M49.22,61.38h-4.4a.87.87,0,0,1-.87-.87V58.66a8,8,0,0,1-1.38-.59l-1.3,1.3a.85.85,0,0,1-1.18,0L37,56.3a.86.86,0,0,1,0-1.18l1.3-1.3a9.27,9.27,0,0,1-.59-1.37H35.88a.88.88,0,0,1-.86-.87V47.17a.87.87,0,0,1,.86-.86h1.85a9,9,0,0,1,.59-1.38L37,43.63a.86.86,0,0,1,0-1.18l3.07-3.07a.85.85,0,0,1,1.18,0l1.3,1.3A8.81,8.81,0,0,1,44,40.09V38.24a.88.88,0,0,1,.87-.87h4.4a.88.88,0,0,1,.87.87v1.85a8.81,8.81,0,0,1,1.38.59l1.3-1.3a.85.85,0,0,1,1.18,0L57,42.45a.86.86,0,0,1,0,1.18l-1.3,1.3a9,9,0,0,1,.59,1.38h1.85a.87.87,0,0,1,.86.86v4.41a.88.88,0,0,1-.86.87H56.31a9.27,9.27,0,0,1-.59,1.37l1.3,1.3a.86.86,0,0,1,0,1.18L54,59.37a.85.85,0,0,1-1.18,0l-1.3-1.3a8,8,0,0,1-1.38.59v1.85a.9.9,0,0,1-.87.87Zm-3.54-1.69h2.68V58.07a.88.88,0,0,1,.63-.82,8.7,8.7,0,0,0,2.16-.91.91.91,0,0,1,1,.12l1.14,1.14,1.89-1.89-1.15-1.14a.83.83,0,0,1-.11-1,9.67,9.67,0,0,0,.9-2.17.89.89,0,0,1,.83-.63h1.61V48H55.68a.89.89,0,0,1-.83-.63,9.67,9.67,0,0,0-.9-2.17.9.9,0,0,1,.11-1l1.15-1.14-1.89-1.89-1.14,1.14a.83.83,0,0,1-1,.12A9.84,9.84,0,0,0,49,41.54a.87.87,0,0,1-.63-.82V39.1H45.68v1.62a.87.87,0,0,1-.63.82,8.92,8.92,0,0,0-2.16.91.89.89,0,0,1-1-.12l-1.14-1.14-1.89,1.89L40,44.22a.82.82,0,0,1,.12,1,9.23,9.23,0,0,0-.9,2.17.9.9,0,0,1-.83.63H36.75v2.67h1.61a.9.9,0,0,1,.83.63,8.58,8.58,0,0,0,.9,2.17.88.88,0,0,1-.12,1l-1.14,1.14,1.89,1.89,1.14-1.14a.86.86,0,0,1,1-.12,9.2,9.2,0,0,0,2.16.91.88.88,0,0,1,.63.82Z" style="fill:#449cc9;fill-rule:evenodd"/><path d="M47,53.47a4.1,4.1,0,1,1,4.09-4.09A4.09,4.09,0,0,1,47,53.47ZM47,47a2.38,2.38,0,1,0,2.36,2.36A2.31,2.31,0,0,0,47,47Z" style="fill:#449cc9;fill-rule:evenodd"/></g></g></svg>