<svg xmlns="http://www.w3.org/2000/svg" viewBox="0 0 86.38 82.86"><title>Recurso 10@1x-</title><g id="Capa_2" data-name="Capa 2"><g id="auditoria_externa" data-name="auditoria externa"><path d="M66.76,43.63c0-4.89-.17-9.78-.17-14.68a1.34,1.34,0,0,1,2.67,0c0,4.62.14,9.23.16,13.84h3.83V13.17l-.09,0H69.07c0,2.12,0,4.23,0,6.34a1.35,1.35,0,0,1-1.33,1.34.5.5,0,0,0-.13,0l-.23,0H52a1.34,1.34,0,0,1,0-2.67H66.37c0-2.09,0-4.17,0-6.26a1.43,1.43,0,0,1,.42-.95,1.28,1.28,0,0,1,1-.46h5.44V2.13H39.84V9.77a1.34,1.34,0,0,1-2.67,0V2.13H33.33c0,4.47-.09,8.93-.1,13.4h3.18a1.37,1.37,0,0,1,1.32,1.08,1.4,1.4,0,0,1,.13.6c0,5.25-.07,10.5-.08,15.75l14.45.12a1.34,1.34,0,0,1,0,2.67l-15.49-.14a1.29,1.29,0,0,1-1.63-1.25c0-5.39.07-10.78.08-16.17H32.11l-.18,0a1.26,1.26,0,0,1-1.38-1.28c0-4.92.11-9.84.11-14.76H26.47v8.1a1.34,1.34,0,0,1-2.67,0V2.13H18V13.2h4.83a.53.53,0,0,1,.12,0h0a1.32,1.32,0,0,1,1.17,1.29v9.54a1.36,1.36,0,0,1-.73,1.17,1.27,1.27,0,0,1-.95.39H20v9.25a1.34,1.34,0,0,1-2.67,0V25.63H9.44a1.33,1.33,0,0,1,0-2.66h12v-7.1H16.65a1.36,1.36,0,0,1-1.34-1.34,0,0,0,0,0,0,0s0-.05,0-.08V2.13H8.69l0,5.43a1.33,1.33,0,0,1-2.66,0c0-1.81,0-3.62,0-5.43H2.13v11H9.32a1.33,1.33,0,0,1,0,2.66H2.13v27h6V33.84a1.33,1.33,0,1,1,2.66,0v8.94l15.36,0V31.51a1.33,1.33,0,0,1,2.66,0V42.76l28.31,0c0-4.84.06-9.68.07-14.52H45.37a1.21,1.21,0,0,1-1.22-.88,1.41,1.41,0,0,1-.12-.57q0-7.44,0-14.89a1.26,1.26,0,0,1,1.36-1.28l.18,0,12.95,0a1.33,1.33,0,0,1,0,2.66l-11.82,0q0,6.16,0,12.32H58.33a1.36,1.36,0,0,1,.36.05,1.23,1.23,0,0,1,1.15,1.27c0,5.58-.08,11.15-.08,16.73a1.3,1.3,0,0,1-1.59,1.27L0,44.92V0H75.38V44.92H68.31v0A1.29,1.29,0,0,1,66.76,43.63Z" style="fill:#8eaab2"/><path d="M64,51.24V38.12h1.5l-2.18-3.26-2.19,3.26h1.5V51.24A.69.69,0,0,0,64,51.24Z" style="fill:#67b4d3"/><path d="M48.26,64.12a2,2,0,0,1-1.28-.5L41.44,59a1.6,1.6,0,0,1-.54-1.21,1.76,1.76,0,0,1,1.77-1.84,2,2,0,0,1,1.27.49l1.42,1.2,1.33-1.34a22.41,22.41,0,1,1,2.55,2.52L48.11,59.9l1.38,1.16A1.61,1.61,0,0,1,50,62.27a1.74,1.74,0,0,1-.53,1.34,1.79,1.79,0,0,1-1.23.51ZM63.65,24.51A17,17,0,1,0,80.7,41.56,17.07,17.07,0,0,0,63.65,24.51Z" style="fill:#153240"/><path d="M63.65,19.33a22.23,22.23,0,1,1-14.43,39.1l-1.48,1.49,1.58,1.33a1.53,1.53,0,0,1-1.06,2.62,1.73,1.73,0,0,1-1.11-.44L41.6,58.76a1.55,1.55,0,0,1,0-2.18,1.57,1.57,0,0,1,1.07-.43,1.76,1.76,0,0,1,1.11.43l1.59,1.34L47,56.27A22.19,22.19,0,0,1,63.65,19.33m0,39.52a17.3,17.3,0,1,0-17.3-17.29,17.32,17.32,0,0,0,17.3,17.29m0-40a22.68,22.68,0,0,0-17.3,37.41l-.78.78-.23.23-.4-.34-.84-.71a2.21,2.21,0,0,0-1.43-.55,2.08,2.08,0,0,0-1.41.57,2,2,0,0,0-.61,1.53,1.9,1.9,0,0,0,.63,1.4l.86.72,4.68,3.94a2.25,2.25,0,0,0,1.44.56,2.05,2.05,0,0,0,1.4-.57,2,2,0,0,0,.61-1.53,1.86,1.86,0,0,0-.62-1.4l-.82-.69-.35-.3.77-.77a22.72,22.72,0,1,0,14.4-40.28Zm0,39.52a16.8,16.8,0,1,1,16.8-16.79,16.82,16.82,0,0,1-16.8,16.79Z" style="fill:#fff"/><path d="M28.28,82.61a5,5,0,0,1-3.57-1.48,5.08,5.08,0,0,1,0-7.16L39.88,58.81l7.46,6.55L31.86,81.13A5.06,5.06,0,0,1,28.28,82.61Z" style="fill:#153240"/><path d="M39.89,59.15,47,65.37,31.68,81a4.81,4.81,0,1,1-6.8-6.8L39.67,59.36l.22-.21m0-.69-.33.33-.22.22L24.53,73.8a5.32,5.32,0,0,0,0,7.51,5.32,5.32,0,0,0,7.51,0L47.33,65.72l.37-.38L47.3,65l-7.08-6.23-.35-.31Z" style="fill:#fff"/></g></g></svg>