<svg xmlns="http://www.w3.org/2000/svg" viewBox="0 0 84.52 50.36"><title>Recurso 12@1x-</title><g id="Capa_2" data-name="Capa 2"><g id="auditoria_interna" data-name="auditoria interna"><path d="M58.62,10.15l-17.07.15A11.07,11.07,0,0,1,46,13.25l12.61-.11A1.5,1.5,0,0,0,58.62,10.15Z" style="fill:#8eaab2"/><path d="M0,0V50.36H84.52V0ZM82.13,35.79a1.42,1.42,0,0,0-.2,0H77.38V28.46A1.5,1.5,0,0,0,75.89,27a1,1,0,0,0-.17,0,1.34,1.34,0,0,0-.35,0H58.29a1.5,1.5,0,0,0,0,3H74.4V37.2a1.51,1.51,0,0,0,.47,1.07s0,0,.07.07a1.27,1.27,0,0,0,.27.18,1.36,1.36,0,0,0,.72.22h6l.2,0V48H44.66V39.41a1.49,1.49,0,0,0-3,0V48H37.57s0,0,0,0c.09-5.12,0-10.24.07-15.36,0-3-2-1.05-3-1.37,0,0,0,0,0,.06-.06,5.56,0,11.12-.08,16.67v0H29.67V38.89a1.49,1.49,0,0,0-3,0V48H20.16V35.56h5.41a.7.7,0,0,0,.14,0h0a1.49,1.49,0,0,0,1.32-1.45V23.38a1.5,1.5,0,0,0-.83-1.31,1.36,1.36,0,0,0-1.06-.45H22.37V11.25a1.49,1.49,0,0,0-3,0V21.62H10.58a1.5,1.5,0,0,0,0,3h13.5v8H18.66a1.51,1.51,0,0,0-1.49,1.5s0,0,0,0,0,.06,0,.09V48H9.74c0-2,0-4,0-6.08a1.5,1.5,0,1,0-3,0c0,2,0,4,0,6.08H2.39V35.69h8.06a1.5,1.5,0,0,0,0-3H2.39V2.39h6.7v10a1.49,1.49,0,1,0,3,0v-10H29.29V13.17a1.53,1.53,0,0,0,.1.54,1.51,1.51,0,0,0,2.89-.54V2.39H64.37V18.76H51a1.76,1.76,0,0,0-1.63,1.62V36.8A1.42,1.42,0,0,0,51,38.24H65.86a1.5,1.5,0,0,0,0-3H52.35V21.74H65.86a1.39,1.39,0,0,0,1.43-1.28,1.58,1.58,0,0,0,.06-.45V2.39h7.31V17.9a1.49,1.49,0,0,0,3,0V2.39h4.49Z" style="fill:#8eaab2"/><path d="M45.46,34.23a1.2,1.2,0,0,1-.79-.32,1.15,1.15,0,0,1-.34-.86,1,1,0,0,1,.35-.79l.72-.6-.51-.51a13.42,13.42,0,1,1,1.63-1.62l.64.64.75-.63a1.3,1.3,0,0,1,.81-.31,1.14,1.14,0,0,1,1.14,1.18,1.08,1.08,0,0,1-.35.78l-3.24,2.72a1.22,1.22,0,0,1-.81.32Zm-9-23.1A9.84,9.84,0,1,0,46.32,21,9.86,9.86,0,0,0,36.49,11.13Z" style="fill:#153240"/><path d="M36.49,8a12.94,12.94,0,0,1,9.69,21.54l1,1,.92-.78a1.06,1.06,0,0,1,.65-.25A.89.89,0,0,1,49.34,31l-3.23,2.72a1,1,0,0,1-.65.26.94.94,0,0,1-.62-.26.91.91,0,0,1,0-1.27l.93-.78-.87-.86A13,13,0,1,1,36.49,8m0,23A10.09,10.09,0,1,0,26.4,21,10.09,10.09,0,0,0,36.49,31.05m0-23.54a13.46,13.46,0,1,0,8.38,24l.16.16-.06.05-.45.38a1.3,1.3,0,0,0-.44,1,1.39,1.39,0,0,0,.42,1.05,1.4,1.4,0,0,0,1.93,0l2.69-2.25.55-.47a1.29,1.29,0,0,0,.44-1,1.42,1.42,0,0,0-.43-1.05,1.39,1.39,0,0,0-1-.38,1.53,1.53,0,0,0-1,.37l-.42.36-.15.12-.32-.31a13.44,13.44,0,0,0-10.37-22Zm0,23A9.59,9.59,0,1,1,46.07,21a9.6,9.6,0,0,1-9.58,9.58Z" style="fill:#fff"/><path d="M57.11,45A3.06,3.06,0,0,1,55,44.12l-9.1-9.28,4.5-4,8.92,8.92A3.05,3.05,0,0,1,57.11,45Z" style="fill:#153240"/><path d="M50.34,31.23l.13.12L59.09,40a2.8,2.8,0,1,1-4,4l-8.92-9.09,4.13-3.62m0-.69-.35.31-4.13,3.63-.39.35.37.37,8.91,9.09a3.31,3.31,0,0,0,4.68-4.67L50.82,31l-.12-.13-.34-.33Z" style="fill:#fff"/><circle cx="36.49" cy="20.97" r="2.39" style="fill:#9cefba;stroke:#fff;stroke-miterlimit:10;stroke-width:0.12276954008683479px"/><path d="M41.33,21.93a4.73,4.73,0,0,1-4.84,4,5,5,0,0,1,0-10,4.91,4.91,0,0,1,3.44,1.42v0c.08-.1.24,0,.31-.09.24-.05.24-.14.46-.4,0,0,0-.14,0-.14a6,6,0,1,0,1.66,5.15c0-.11-.12-.18-.33-.2A.71.71,0,0,0,41.33,21.93Z" style="fill:#95d5e8"/><circle cx="41.36" cy="19.24" r="0.48" style="fill:#95d5e8"/></g></g></svg>