<svg xmlns="http://www.w3.org/2000/svg" viewBox="0 0 93.2 67.46"><title>Recurso 8@1x-</title><g id="Capa_2" data-name="Capa 2"><g id="evento_crítico" data-name="evento crítico"><path d="M45.92,20,35.52,38a.79.79,0,0,0,.68,1.19H57A.8.8,0,0,0,57.68,38L47.28,20A.78.78,0,0,0,45.92,20Z" style="fill:#d0202b"/><path d="M45.43,36.35a1.16,1.16,0,0,1,1.17-1.23,1.23,1.23,0,0,1,0,2.46A1.16,1.16,0,0,1,45.43,36.35Zm.49-2.83L45.65,24h1.9l-.28,9.52Z" style="fill:#fff"/><path d="M59,67.46A34,34,0,0,1,24.85,33.73,34,34,0,0,1,59,0C77.87,0,93.2,15.13,93.2,33.73S77.87,67.46,59,67.46Zm0-63.8A30.34,30.34,0,0,0,28.5,33.73a30.52,30.52,0,0,0,61,0A30.33,30.33,0,0,0,59,3.66Z" style="fill:#9cefba"/><path d="M34.17,67.46A34,34,0,0,1,0,33.73,34,34,0,0,1,34.17,0C53,0,68.35,15.13,68.35,33.73S53,67.46,34.17,67.46Zm0-63.8A30.33,30.33,0,0,0,3.66,33.73,30.34,30.34,0,0,0,34.17,63.81,30.34,30.34,0,0,0,64.69,33.73,30.33,30.33,0,0,0,34.17,3.66Z" style="fill:#95d5e8"/></g></g></svg>