<svg xmlns="http://www.w3.org/2000/svg" xmlns:xlink="http://www.w3.org/1999/xlink" viewBox="0 0 147.91 182.87"><defs><linearGradient id="Degradado_sin_nombre_27" y1="87.01" x2="123.68" y2="87.01" gradientUnits="userSpaceOnUse"><stop offset="0" stop-color="#009ccb"/><stop offset="0.79" stop-color="#009dc9"/><stop offset="0.84" stop-color="#00a6b9"/><stop offset="0.95" stop-color="#00be8f"/><stop offset="1" stop-color="#0c7"/></linearGradient></defs><title>Recurso 44@1x-</title><g id="Capa_2" data-name="Capa 2"><g id="Capa_1-2" data-name="Capa 1"><rect x="2.5" y="2.5" width="118.68" height="169.03" rx="12.91" style="fill:none;stroke-linecap:round;stroke-linejoin:round;stroke-width:5px;stroke:url(#Degradado_sin_nombre_27)"/><path d="M22.37,18.69H19V21h4v1.42H17.24V13.86H23v1.42H19v2h3.37Z" style="fill:#3a3a3a"/><path d="M27.14,20.27l1.94-6.41h2l-3,8.53H26.23l-3-8.53h1.95Z" style="fill:#3a3a3a"/><path d="M37,18.69H33.59V21h4v1.42H31.84V13.86h5.7v1.42H33.59v2H37Z" style="fill:#3a3a3a"/><path d="M45.52,22.39H43.77l-3.43-5.62v5.62H38.59V13.86h1.75l3.43,5.62V13.86h1.75Z" style="fill:#3a3a3a"/><path d="M53.31,15.28H50.7v7.11H48.94V15.28H46.36V13.86h7Z" style="fill:#3a3a3a"/><path d="M61.16,18.31a5.1,5.1,0,0,1-.45,2.21A3.39,3.39,0,0,1,59.44,22a3.79,3.79,0,0,1-3.8,0,3.44,3.44,0,0,1-1.29-1.45,5,5,0,0,1-.46-2.18v-.42a5.18,5.18,0,0,1,.45-2.22,3.38,3.38,0,0,1,1.29-1.47,3.78,3.78,0,0,1,3.79,0,3.36,3.36,0,0,1,1.28,1.47,5.16,5.16,0,0,1,.46,2.21Zm-1.79-.38a3.57,3.57,0,0,0-.48-2,1.69,1.69,0,0,0-2.73,0,3.6,3.6,0,0,0-.49,2v.41a3.63,3.63,0,0,0,.48,2,1.68,1.68,0,0,0,2.74,0,3.56,3.56,0,0,0,.48-2Z" style="fill:#3a3a3a"/><path d="M68.57,20H67.44L67,22.39H65.94L66.36,20H65V19h1.51l.29-1.67H65.47v-1H67l.42-2.43h1.07l-.43,2.43h1.14l.43-2.43h1.07l-.43,2.43h1.28v1H70.11L69.82,19h1.31v1H69.64l-.42,2.41H68.15Zm-1-1h1.13l.3-1.67H67.9Z" style="fill:#3a3a3a"/><path d="M75.72,20H74.59l-.43,2.41H73.09L73.51,20H72.18V19h1.51L74,17.31H72.62v-1h1.54l.43-2.43h1.07l-.43,2.43h1.14l.42-2.43h1.08l-.43,2.43h1.28v1H77.26L77,19h1.32v1H76.79l-.42,2.41H75.29Zm-1-1h1.13l.3-1.67H75.05Z" style="fill:#3a3a3a"/><line x1="17.31" y1="45.6" x2="62.15" y2="45.6" style="fill:none;stroke:#727272;stroke-linecap:round;stroke-linejoin:round;stroke-width:8px"/><line x1="17.31" y1="74.61" x2="62.15" y2="74.61" style="fill:none;stroke:#727272;stroke-linecap:round;stroke-linejoin:round;stroke-width:8px"/><line x1="17.31" y1="103.62" x2="62.15" y2="103.62" style="fill:none;stroke:#727272;stroke-linecap:round;stroke-linejoin:round;stroke-width:8px"/><line x1="17.31" y1="118.12" x2="62.15" y2="118.12" style="fill:none;stroke:#727272;stroke-linecap:round;stroke-linejoin:round;stroke-width:8px"/><line x1="17.31" y1="60.1" x2="87.03" y2="60.1" style="fill:none;stroke:#727272;stroke-linecap:round;stroke-linejoin:round;stroke-width:8px"/><line x1="17.31" y1="89.11" x2="87.03" y2="89.11" style="fill:none;stroke:#727272;stroke-linecap:round;stroke-linejoin:round;stroke-width:8px"/><circle cx="108.57" cy="143.53" r="36.4" style="fill:#fff;stroke:#3a3a3a;stroke-linecap:round;stroke-linejoin:round;stroke-width:5.89743585157835px"/><g id="layer1"><path id="path14" d="M92.77,161.88A2.6,2.6,0,0,0,95.33,164h26.48a2.59,2.59,0,0,0,2.55-2.16Zm2.56-20.15a2.59,2.59,0,0,0-2.6,2.59v15.76H124.4V144.32a2.59,2.59,0,0,0-2.59-2.59h-1.58c0-.3,0-6.72,0-7a11.7,11.7,0,0,0-23.39,0c0,.3,0,6.72,0,7Zm17.83,0H104c-.06-.29-.09-6.71-.09-7a4.68,4.68,0,1,1,9.35,0C113.24,135,113.22,141.44,113.16,141.73Z" style="fill:#ff7373;fill-rule:evenodd"/></g></g></g></svg>