<svg xmlns="http://www.w3.org/2000/svg" viewBox="0 0 103.4 84.24"><title>Recurso 6@1x-</title><g id="Capa_2" data-name="Capa 2"><g id="gestión_de_cambios" data-name="gestión de cambios"><path d="M68.24,35l-3.59-.15a20.22,20.22,0,0,0-.91-3.48l2.89-1.67a1.72,1.72,0,0,0,.63-2.35L65.9,25a1.73,1.73,0,0,0-2.35-.63l-2.81,1.62a19.73,19.73,0,0,0-2.88-3l1.52-2.14A1.73,1.73,0,0,0,59,18.42l-2.22-1.57a1.73,1.73,0,0,0-2.4.41l-1.82,2.57a18.93,18.93,0,0,0-3.44-1V16a1.74,1.74,0,0,0-1.73-1.73H44.64A1.73,1.73,0,0,0,42.92,16v2.61a19.34,19.34,0,0,0-4,.92l-1.59-2.35A1.73,1.73,0,0,0,35,16.73l-2.25,1.53a1.71,1.71,0,0,0-.46,2.39l1.23,1.82a19.14,19.14,0,0,0-3.2,3l-1.66-.95a1.71,1.71,0,0,0-2.35.63l-1.36,2.35a1.73,1.73,0,0,0,.63,2.36l1.59.92A19.73,19.73,0,0,0,26,35.37H23.82a1.72,1.72,0,0,0-1.72,1.72v2.72a1.72,1.72,0,0,0,1.72,1.72h2.26a19,19,0,0,0,1.05,3.68l-1.89,1.31a1.72,1.72,0,0,0-.42,2.4l1.56,2.23a1.73,1.73,0,0,0,2.4.43l1.48-1a19.13,19.13,0,0,0,3.3,3.12l-1.08,1.5a1.73,1.73,0,0,0,.39,2.41l2.21,1.58a1.71,1.71,0,0,0,2.4-.39l1.57-2.18a18.74,18.74,0,0,0,3.9.89v2.41a1.72,1.72,0,0,0,1.72,1.73h2.72a1.72,1.72,0,0,0,1.72-1.73V57.27A19,19,0,0,0,53,56.1l1.63,2.82a1.72,1.72,0,0,0,2.35.63l2.36-1.36a1.73,1.73,0,0,0,.63-2.35l-1.74-3a19.68,19.68,0,0,0,2.81-3l2.16,1.73a1.72,1.72,0,0,0,2.42-.26l1.7-2.12A1.72,1.72,0,0,0,67,46.73l-3.09-2.48A19.49,19.49,0,0,0,64.7,41l3.28.14a1.72,1.72,0,0,0,1.8-1.65l.11-2.72A1.72,1.72,0,0,0,68.24,35ZM45.35,47.72A9.68,9.68,0,1,1,55,38,9.68,9.68,0,0,1,45.35,47.72Z" style="fill:#8eaab2"/><path d="M83.79,38.21A38.21,38.21,0,0,0,7.5,35L4.1,30.11A1.56,1.56,0,0,0,2,29.56a1.53,1.53,0,0,0-.54,2.08L7.92,41A1.55,1.55,0,0,0,10,41.5a1.67,1.67,0,0,0,.49-.5s0,0,0,0c2.76-2.77,5.31-5.74,8.08-8.51a1.52,1.52,0,1,0-2.15-2.15c-1.85,1.85-3.6,3.79-5.38,5.7a34.53,34.53,0,1,1,1.07,11.05A1.83,1.83,0,0,0,8.62,48,38.2,38.2,0,0,0,30.75,73.42H1.47a1.52,1.52,0,0,0,0,3H46.05a1.6,1.6,0,0,0,.39,0A38.27,38.27,0,0,0,83.79,38.21Z" style="fill:#95d5e8"/><path d="M102,72.12c-9-8.16-9.36-8.41-9.47-8.49a1.81,1.81,0,0,0-2.49.41,1.85,1.85,0,0,0,.33,2.53c.36.29,3.46,3.08,6.38,5.72H68.32a1.52,1.52,0,0,0,0,3H96.46l-5.63,5.83a1.84,1.84,0,0,0,0,2.58,1.82,1.82,0,0,0,1.27.51,1.8,1.8,0,0,0,1.31-.56l9.94-10.29Z" style="fill:#9cefba"/></g></g></svg>