<svg xmlns="http://www.w3.org/2000/svg" xmlns:xlink="http://www.w3.org/1999/xlink" viewBox="0 0 297.37 269.82"><defs><clipPath id="clip-path" transform="translate(-1.5)"><rect x="76.24" y="60.3" width="79.9" height="58.17" style="fill:none"/></clipPath><clipPath id="clip-path-2" transform="translate(-1.5)"><path d="M93.69,91.13l0,0a13.89,13.89,0,1,0,9.87,16.93v0c3.54-13.44,21.67-24,35.11-20.46h0a13.9,13.9,0,1,0-9.9-17h0c-3.54,13.44-21.67,24-35.11,20.47" style="fill:none"/></clipPath><linearGradient id="Degradado_sin_nombre" x1="7468.98" y1="6773.22" x2="7469.98" y2="6773.22" gradientTransform="matrix(-79.9, 0, 0, 79.9, 596943.47, -541111.82)" gradientUnits="userSpaceOnUse"><stop offset="0" stop-color="#fff"/><stop offset="0.98" stop-color="#1d1d1b"/><stop offset="1" stop-color="#1d1d1b"/></linearGradient><clipPath id="clip-path-3" transform="translate(-1.5)"><rect x="183.44" y="32.93" width="21.8" height="21.27" style="fill:none"/></clipPath><clipPath id="clip-path-4" transform="translate(-1.5)"><path d="M199.83,52.76a10.5,10.5,0,0,0,3.93-14.55,11.06,11.06,0,0,0-14.91-3.83,10.49,10.49,0,0,0-3.93,14.54,11.06,11.06,0,0,0,14.91,3.84" style="fill:none"/></clipPath><radialGradient id="Degradado_sin_nombre_2" cx="6671.66" cy="7464.96" r="1" gradientTransform="matrix(10.9, 0, 0, -15.45, -72550.18, 115402.97)" xlink:href="#Degradado_sin_nombre"/></defs><title>Recurso 46@1x-</title><g style="isolation:isolate"><g id="Capa_2" data-name="Capa 2"><g id="Capa_1-2" data-name="Capa 1"><path d="M22.84,269.25V206.84H1.5v-6.77H51.7v6.77H30.36v62.41Z" transform="translate(-1.5)" style="fill:#3f3f3e"/><path d="M96.35,269.82a37.05,37.05,0,0,1-10.81-1.41,15.33,15.33,0,0,1-7.61-5.13q-3-3.7-4.47-10.67A91.51,91.51,0,0,1,72,234.47a82,82,0,0,1,1.51-17.34,26.05,26.05,0,0,1,4.56-10.67,16.16,16.16,0,0,1,7.75-5.41,35.64,35.64,0,0,1,11.09-1.55,62.65,62.65,0,0,1,6.49.38q3.57.38,7,.89a58.75,58.75,0,0,1,6.3,1.27v5.55c-1.07-.19-2.57-.38-4.51-.57s-4.16-.36-6.63-.51-5-.24-7.57-.24a28.62,28.62,0,0,0-8.55,1.13,11.09,11.09,0,0,0-5.78,4.18,21.33,21.33,0,0,0-3.25,8.6,81.29,81.29,0,0,0-1,14.39,88,88,0,0,0,1,14.61,21.09,21.09,0,0,0,3.15,8.7A10.94,10.94,0,0,0,89.21,262a28.07,28.07,0,0,0,8.64,1.13q7.05,0,11.57-.37c3-.25,5.45-.54,7.33-.85v5.64c-1.88.44-4,.83-6.25,1.18s-4.64.61-7,.79S98.67,269.82,96.35,269.82Z" transform="translate(-1.5)" style="fill:#3f3f3e"/><path d="M140.25,269.25l7.89-69.18h7.62l18.42,59.78,18-59.78h7.71L208,269.25h-7.24l-6.95-60.63,1.22.19-17.48,60.44H170.7L152.75,208.9l1.41-.18-6.67,60.53Z" transform="translate(-1.5)" style="fill:#3f3f3e"/><path d="M247.22,269.25V206.84H225.88v-6.77h50.2v6.77H254.74v62.41Z" transform="translate(-1.5)" style="fill:#3f3f3e"/><path d="M201.34,55.84a13.9,13.9,0,1,0-19-5,13.89,13.89,0,0,0,19,5" transform="translate(-1.5)" style="fill:#44cc7b"/><path d="M138.7,87.65l0,0a13.9,13.9,0,1,0-9.87-16.93v0c-3.54,13.44-21.67,24-35.11,20.47h0a13.9,13.9,0,1,0,9.9,17h0c3.54-13.44,21.67-24,35.11-20.46" transform="translate(-1.5)" style="fill:#28b6f2"/><path d="M83.15,55.84a13.9,13.9,0,0,0,19-5,14.27,14.27,0,0,0,1.37-3.45l0,.07C107.2,34,125.2,23.7,138.62,27.32l0-.07a13.88,13.88,0,1,0-9.72-16.91l0-.06C125.2,23.7,107.2,34,93.77,30.41l0,.07A13.87,13.87,0,0,0,83.15,55.84" transform="translate(-1.5)" style="fill:#28b6f2"/><path d="M201.34,92.56a13.9,13.9,0,0,0-19,5A13.72,13.72,0,0,0,181,101l0-.08c-3.63,13.43-21.63,23.77-35,20.14l0,.07a13.88,13.88,0,1,0,9.72,16.92l0,.06c3.63-13.42,21.63-23.76,35.05-20.14l0-.06a13.87,13.87,0,0,0,10.66-25.37" transform="translate(-1.5)" style="fill:#28b6f2"/><g style="opacity:0.38000500202179;mix-blend-mode:multiply"><g style="clip-path:url(#clip-path)"><g style="clip-path:url(#clip-path-2)"><rect x="64.07" y="40.1" width="104.26" height="98.56" transform="translate(-31.67 81.04) rotate(-34.31)" style="fill:url(#Degradado_sin_nombre)"/></g></g></g><g style="opacity:0.240005001425743;mix-blend-mode:multiply"><g style="clip-path:url(#clip-path-3)"><g style="clip-path:url(#clip-path-4)"><rect x="180.39" y="31.42" width="24.9" height="35.29" style="fill:url(#Degradado_sin_nombre_2)"/></g></g></g><path d="M282.42,241.56V226.94h5.5a6.22,6.22,0,0,1,1.21.13,3,3,0,0,1,1.14.53,2.76,2.76,0,0,1,.85,1.2,5.92,5.92,0,0,1,.32,2.14,6.32,6.32,0,0,1-.31,2.15,3.07,3.07,0,0,1-.8,1.25,2.73,2.73,0,0,1-1,.59,5.07,5.07,0,0,1-1,.18l3.22,6.45H291l-3.23-6.45-1,0c-.42,0-.86,0-1.33,0L284,235l-1.15,0v6.57Zm.47-6.89h5a4.69,4.69,0,0,0,1.14-.13,2.19,2.19,0,0,0,1-.52,2.65,2.65,0,0,0,.68-1.13,6.12,6.12,0,0,0,.25-1.95,5.49,5.49,0,0,0-.26-1.86A2.48,2.48,0,0,0,290,228a2.43,2.43,0,0,0-1-.5,5.12,5.12,0,0,0-1.12-.13h-5Z" transform="translate(-1.5)" style="fill:#3f3f3e"/><path d="M286.91,246.21a12,12,0,1,1,12-12,12,12,0,0,1-12,12m0-23.44a11.47,11.47,0,1,0,11.46,11.47,11.48,11.48,0,0,0-11.46-11.47" transform="translate(-1.5)" style="fill:#3f3f3e"/></g></g></g></svg>