<svg xmlns="http://www.w3.org/2000/svg" viewBox="0 0 203.47 236.55"><title>Recurso 45@1x-</title><g id="Capa_2" data-name="Capa 2"><g id="Capa_1-2" data-name="Capa 1"><path d="M203.47,106.17v1.44c-.45.23-.21.64-.24,1-.19,2.37-.29,4.74-.55,7.1a106.68,106.68,0,0,1-11.93,38.47c-7.76,14.71-18.17,27.41-29.89,39.09-15.17,15.1-32.05,28.12-49.62,40.29a16.64,16.64,0,0,1-19.42-.19q-6.16-4.31-12.24-8.76a322.74,322.74,0,0,1-38.94-33.21C30,180.53,20.55,168.82,13.28,155.44,5,140.19.29,123.94.11,106.55-.08,88.5,0,70.44,0,52.39c0-.32,0-.64,0-1a16.79,16.79,0,0,1,16.25-15.7A87.4,87.4,0,0,0,44,30.94C61.26,25.06,76.62,15.77,90.6,4.11A19.06,19.06,0,0,1,95,1.38C96.43.71,98,.55,99.49,0h4.1c.09.07.16.19.25.2a15.9,15.9,0,0,1,8.89,3.9,141.56,141.56,0,0,0,11.5,8.75A141.85,141.85,0,0,0,159.74,31a87.66,87.66,0,0,0,23.78,4.6,35.63,35.63,0,0,1,6.6.46c7.41,1.79,12.23,7.37,13.19,15.32l0,54.14C203.28,105.75,203.18,106,203.47,106.17Zm-101.8,54.67H129a14.54,14.54,0,0,0,3.23-.27c4.6-1.11,7.38-4.79,7.39-9.83q0-18.47,0-36.91c0-.28,0-.57,0-.85a9.39,9.39,0,0,0-8.58-9.14c-.83-.1-.92-.38-.92-1.08,0-6.07,0-12.14,0-18.21a28.12,28.12,0,0,0-.62-6.47C126,62.76,112.12,53.43,96.57,56c-13,2.11-23.27,14.1-23.37,27.25,0,6.51,0,13,0,19.54,0,.7-.1,1-.93,1.08a9.39,9.39,0,0,0-8.59,9.74c0,12.47,0,24.93,0,37.4a9.42,9.42,0,0,0,4.82,8.59,10.45,10.45,0,0,0,5.56,1.27Z" style="fill:#ff7373"/><path d="M203.31,51.39h.16v54.78c-.29-.15-.19-.42-.19-.64Z" style="fill:#fdfdfd"/><path d="M101.62,103.78c-5.91,0-11.82,0-17.73,0-1.12,0-1.29-.32-1.28-1.33,0-6,0-12.06,0-18.09a19,19,0,0,1,16-19.15c10.38-1.93,21,6.06,21.85,16.57.51,6.29.11,12.62.18,18.92,0,1,.45,2.31-.21,2.88s-1.84.17-2.8.17C112.31,103.79,107,103.78,101.62,103.78Z" style="fill:#ff7373"/></g></g></svg>