<svg xmlns="http://www.w3.org/2000/svg" viewBox="0 0 333.82 79.5"><title>Recurso 1@1x-</title><g id="Capa_2" data-name="Capa 2"><g id="Capa_1-2" data-name="Capa 1"><path d="M167.77,79.27c-52.22,0-104.45-.24-156.67.23C2,79.58-.29,77.18,0,68.31.74,48.47.51,28.58.11,8.73,0,1.94,2.12,0,8.91,0q158.48.3,316.94,0c6.63,0,7.92,2.38,7.84,8.26-.28,20.25-.55,40.53.11,60.77.27,8.46-2.24,10.5-10.55,10.44C271.43,79.08,219.6,79.27,167.77,79.27Zm43.71-26-.21-.19c2.85,5.33,7.74,2.07,11.59,2.47,9.75,1,20.84-3.3,26.9,9.45,1.68,3.53,7.59,2.2,11.17,1.2s4.82-5.28,4.2-8.74c-2.22-12.35,4.74-12.52,14.25-12.87,10.12-.37,11.94,6.78,14.58,12.86,3.64,8.36,8.69,11.59,18.35,8.06l-5.85-11.68c-2.51-5-7.23-9.32,2.06-13.77C315,37,313.4,28.9,311.8,22.71c-1.47-5.67-6.15-8.22-11.77-8.36-13.94-.35-27.9-.26-41.84-.65-5.5-.16-6.71,2.35-6.52,7.22.3,7.49.08,15,.08,22.51-7.58-8-12.74-16-18.21-23.79s-11-8-16.58-.17c-6.21,8.74-12,17.76-18,26.67-5.64,8.44-20.1,13.32-30,8.94-8.48-3.73-2.29-12-4.07-18a12.45,12.45,0,0,1,0-2.37c-.75-7.65,2.67-10.87,10.4-10.61,9.56.33,19.14,0,28.71.09,4,0,6.95-.28,6.69-5.61-.24-5-3.52-4.42-6.62-4.44-10-.05-19.94,0-29.9,0-20.56,0-22.71,2.16-22.72,22.36,0,19.92,0,19.58-20.51,19.31-7-.09-8.89-2.37-8.54-8.93.48-9.12,0-18.28.18-27.41.11-4.87-1.2-7.23-6.7-7.1-5.23.13-8.09,1-7.89,7.2.4,13.1.43,26.24,0,39.33-.21,6.43,2.16,8.12,8.28,8,20.14-.35,40.29-.54,60.43-.13,13.21.27,26.35,1.56,32.82-13.75C209.51,52.88,210.77,53.2,211.48,53.3ZM90.8,53.88a20.29,20.29,0,0,1,.29,3.54c-.52,5.8.06,9.65,7.91,9.5,8.19-.16,6.33-5.3,6.37-9.68.13-12.32-.26-24.65.18-36.95.21-6.11-2.38-7.23-7.73-7.28s-6.9,2.08-6.72,7.08c.29,8.06.08,16.14.08,24.22C85.91,33.42,77.43,31.13,67.05,31.83a121.93,121.93,0,0,1-17.93,0c-4.32-.35-11.8,2.68-12-3.56-.27-6.83,7.29-3.83,11.51-4.1,7.14-.45,14.35-.23,21.52-.08,4,.08,6.77-.29,6.68-5.57-.08-5-2.32-5.93-6.61-5.87-10.76.16-21.54-.2-32.3.09-9.56.26-16.07,4.58-16.51,15-.44,10.15,6.09,16.81,17.09,17.2,9.16.32,18.34,0,27.51,0,3.27,0,7.42.05,7.39,4.06,0,3.8-4,4.19-7.38,4.18-12,0-23.92.06-35.88,0-4.38,0-7.75.2-7.71,6.16,0,5.52,1.65,7.81,7.53,7.63,12-.36,24-.54,35.88,0C76.77,67.47,85.39,64.88,90.8,53.88Z" style="fill:#07549c"/><path d="M211.48,53.3c-.71-.1-2-.42-2-.26-6.47,15.31-19.61,14-32.82,13.75-20.14-.41-40.29-.22-60.43.13-6.12.1-8.49-1.59-8.28-8,.44-13.09.41-26.23,0-39.33-.2-6.21,2.66-7.07,7.89-7.2,5.5-.13,6.81,2.23,6.7,7.1-.22,9.13.3,18.29-.18,27.41-.35,6.56,1.56,8.84,8.54,8.93,20.51.27,20.51.61,20.51-19.31,0-20.2,2.16-22.32,22.72-22.36,10,0,19.93,0,29.9,0,3.1,0,6.38-.56,6.62,4.44.26,5.33-2.7,5.65-6.69,5.61-9.57-.1-19.15.24-28.71-.09-7.73-.26-11.15,3-10.4,10.61a12.45,12.45,0,0,0,0,2.37c1.78,6-4.41,14.25,4.07,18,9.94,4.38,24.4-.5,30-8.94,6-8.91,11.79-17.93,18-26.67,5.57-7.83,11-7.74,16.58.17s10.63,15.83,18.21,23.79c0-7.5.22-15-.08-22.51-.19-4.87,1-7.38,6.52-7.22,13.94.39,27.9.3,41.84.65,5.62.14,10.3,2.69,11.77,8.36C313.4,28.9,315,37,308.52,40.09c-9.29,4.45-4.57,8.76-2.06,13.77l5.85,11.68c-9.66,3.53-14.71.3-18.35-8.06-2.64-6.08-4.46-13.23-14.58-12.86-9.51.35-16.47.52-14.25,12.87.62,3.46-.53,7.73-4.2,8.74s-9.49,2.33-11.17-1.2c-6.06-12.75-17.15-8.43-26.9-9.45-3.85-.4-8.74,2.86-11.61-2.48.39-1.3.8-2.59,1.2-3.87l-1.1-.16ZM282,33.64c3.16,0,6.33.11,9.48,0,3.45-.16,7.92.36,7.62-4.9-.23-4-4-4.41-7.17-4.47-6.72-.13-13.43,0-20.15-.06-3.25,0-6.28-.13-6.48,4.6s2.61,4.94,6,4.88S278.4,33.64,282,33.64Zm-57.9-5.44c-2.23,6.67-7.41,10-7.77,15.89h18.37A45.43,45.43,0,0,0,224.05,28.2Z" style="fill:#f2f5f8"/><path d="M90.8,53.88c-5.41,11-14,13.59-25,13.06-11.93-.57-23.93-.39-35.88,0-5.88.18-7.5-2.11-7.53-7.63,0-6,3.33-6.19,7.71-6.16,12,.08,23.92,0,35.88,0,3.37,0,7.36-.38,7.38-4.18,0-4-4.12-4.07-7.39-4.06-9.17,0-18.35.27-27.51,0-11-.39-17.53-7.05-17.09-17.2.44-10.37,7-14.69,16.51-14.95,10.76-.29,21.54.07,32.3-.09,4.29-.06,6.53.91,6.61,5.87.09,5.28-2.66,5.65-6.68,5.57-7.17-.15-14.38-.37-21.52.08-4.22.27-11.78-2.73-11.51,4.1.25,6.24,7.73,3.21,12,3.56a121.93,121.93,0,0,0,17.93,0c10.38-.7,18.86,1.59,24.13,12.48,0-8.08.21-16.16-.08-24.22-.18-5,1.34-7.12,6.72-7.08s7.94,1.17,7.73,7.28c-.44,12.3,0,24.63-.18,37,0,4.38,1.82,9.52-6.37,9.68-7.85.15-8.43-3.7-7.91-9.5A20.29,20.29,0,0,0,90.8,53.88Z" style="fill:#f2f5f8"/><path d="M282,33.64c-3.55,0-7.11,0-10.66,0s-6.24-.12-6-4.88,3.23-4.6,6.48-4.6c6.72,0,13.43-.07,20.15.06,3.2.06,6.94.49,7.17,4.47.3,5.26-4.17,4.74-7.62,4.9C288.28,33.75,285.11,33.64,282,33.64Z" style="fill:#07549c"/><path d="M224.05,28.2a45.43,45.43,0,0,1,10.6,15.89H216.28C216.64,38.16,221.82,34.87,224.05,28.2Z" style="fill:#07549c"/><path d="M211.48,53.3l-.13-4.23,1.1.16c-.4,1.28-.81,2.57-1.2,3.87Z" style="fill:#07549c"/></g></g></svg>