<svg xmlns="http://www.w3.org/2000/svg" viewBox="0 0 79.76 78.99"><title>Recurso 4@1x-</title><g id="Capa_2" data-name="Capa 2"><g id="reuniones"><path d="M22.38,18.67V25a.69.69,0,0,0,1.37,0V18.67A.69.69,0,0,0,22.38,18.67Z" style="fill:#9cefba"/><path d="M56.24,24.88V18.81a.69.69,0,0,0-1.37,0v6.07A.69.69,0,0,0,56.24,24.88Z" style="fill:#95d5e8"/><path d="M22.38,53.53v5.91a.69.69,0,0,0,1.37,0V53.53A.69.69,0,0,0,22.38,53.53Z" style="fill:#95d5e8"/><path d="M56.24,59.44V53.53a.69.69,0,0,0-1.37,0v5.91A.69.69,0,0,0,56.24,59.44Z" style="fill:#9cefba"/><path d="M54.76,74.5a7.49,7.49,0,0,1-2.35,2.59c-1.17.82-2.64.52-4,.51l-10-.08-9.71-.07c-2.06,0-4.24-.66-5.28-2.6-.42-.78-1.6-.09-1.18.69a6.63,6.63,0,0,0,5.25,3.22,48.83,48.83,0,0,0,5,.09l5.93,0L50.28,79a4.4,4.4,0,0,0,3.1-.9,8.93,8.93,0,0,0,2.56-2.88C56.36,74.42,55.17,73.72,54.76,74.5Z" style="fill:#9cefba"/><path d="M4.08,33.4l7.21,1.85a.69.69,0,0,0,.2,0,.83.83,0,0,0,.8-.62.82.82,0,0,0-.59-1L4.49,31.8a3.64,3.64,0,0,1-2.74-3.5l-.1-13.38a3.59,3.59,0,0,1,3-3.59L12.27,10A.82.82,0,0,0,12,8.42L4.38,9.7A5.25,5.25,0,0,0,0,14.93L.1,28.31A5.31,5.31,0,0,0,4.08,33.4Z" style="fill:#9cefba"/><path d="M75.37,44.34l-7.61-1.28a.82.82,0,0,0-.27,1.62L75.1,46a3.59,3.59,0,0,1,3,3.59L78,62.94a3.66,3.66,0,0,1-2.74,3.5L68.06,68.3a.82.82,0,0,0-.59,1,.83.83,0,0,0,.8.62l.2,0L75.68,68a5.3,5.3,0,0,0,4-5.09l.11-13.38A5.26,5.26,0,0,0,75.37,44.34Z" style="fill:#9cefba"/><path d="M66.69,10l7.61,1.29a3.59,3.59,0,0,1,3,3.59l-.1,13.38a3.64,3.64,0,0,1-2.74,3.5l-7.21,1.86a.82.82,0,0,0-.59,1,.83.83,0,0,0,.8.62.69.69,0,0,0,.2,0l7.21-1.85a5.31,5.31,0,0,0,4-5.09L79,14.93A5.25,5.25,0,0,0,74.58,9.7L67,8.42A.82.82,0,1,0,66.69,10Z" style="fill:#95d5e8"/><path d="M11.92,68.3,4.71,66.44A3.66,3.66,0,0,1,2,62.94l-.1-13.38a3.59,3.59,0,0,1,3-3.59l7.61-1.29a.83.83,0,0,0,.68-1,.82.82,0,0,0-.95-.67L4.61,44.34A5.24,5.24,0,0,0,.23,49.57L.33,63A5.3,5.3,0,0,0,4.3,68l7.21,1.85a.76.76,0,0,0,.21,0,.82.82,0,0,0,.2-1.62Z" style="fill:#95d5e8"/><path d="M11.81,15.05a6.89,6.89,0,0,0,0,13.78,7.1,7.1,0,0,0,2-.3,7.59,7.59,0,0,0,2.54,6.84c2.49,2.12,5.94,2.05,8.94,1.25a36.15,36.15,0,0,0,5-1.89c1.41-.62,3-1.18,3.9-2.49,1.77-2.51-.67-5.12-3.36-4.9-2,.17-3.62,1.52-5.53,2.09a3.73,3.73,0,0,1-4.74-2.29c-.29-.83-1.61-.48-1.32.36A5.11,5.11,0,0,0,24.34,31a10.56,10.56,0,0,0,3.93-1.38c1.3-.65,3-1.42,4.37-.55,1.53,1,.62,2.56-.59,3.32a26.88,26.88,0,0,1-4.23,1.92c-2.68,1.06-5.82,2-8.67,1.08a6.15,6.15,0,0,1-3.95-6.89.7.7,0,0,0-.1-.52,6.88,6.88,0,0,0-.2-12.2.63.63,0,0,0,0-.51,5.63,5.63,0,0,1,3.26-6.59c2.73-1.29,5.89-.81,8.63.18,1.21.45,7.7,2.71,5.74,4.88-1,1.16-2.79.5-3.95-.09a11.93,11.93,0,0,0-3.7-1.51,4.57,4.57,0,0,0-5,4.35c0,.88,1.33.88,1.37,0a3.21,3.21,0,0,1,3.16-3c1.7,0,3.17,1.32,4.7,1.9A4.22,4.22,0,0,0,33,15.15,2.68,2.68,0,0,0,34.14,12a5.27,5.27,0,0,0-2.73-2.57,32.55,32.55,0,0,0-4.69-2.06c-3.06-1-6.54-1.29-9.48.26a7,7,0,0,0-3.71,7.63A6.93,6.93,0,0,0,11.81,15.05Zm5.25,6.89a5.25,5.25,0,1,1-5.25-5.25A5.25,5.25,0,0,1,17.06,21.94Z" style="fill:#153240"/><path d="M25.7,71.26a36.27,36.27,0,0,0,5-1.89c1.4-.62,3-1.18,3.9-2.49,1.77-2.51-.67-5.12-3.36-4.9-2,.17-3.63,1.52-5.54,2.09A3.73,3.73,0,0,1,21,61.78c-.29-.83-1.62-.48-1.33.36a5.11,5.11,0,0,0,5.06,3.51,10.5,10.5,0,0,0,3.93-1.38c1.3-.65,3-1.42,4.38-.55s.61,2.56-.59,3.32A27.3,27.3,0,0,1,28.22,69C25.54,70,22.4,71,19.55,70a6.16,6.16,0,0,1-4-6.89.7.7,0,0,0-.1-.52,6.88,6.88,0,0,0-.19-12.2.63.63,0,0,0,0-.51,5.62,5.62,0,0,1,3.26-6.59c2.73-1.29,5.89-.81,8.63.18,1.2.44,7.69,2.71,5.74,4.88-1,1.16-2.8.5-3.95-.09a12,12,0,0,0-3.7-1.51,4.57,4.57,0,0,0-5,4.35c-.05.88,1.32.88,1.37,0a3.21,3.21,0,0,1,3.16-3c1.69,0,3.16,1.32,4.7,1.9a4.2,4.2,0,0,0,3.9-.23,2.67,2.67,0,0,0,1.1-3.14,5.25,5.25,0,0,0-2.72-2.57A32.19,32.19,0,0,0,27.11,42c-3.05-1-6.54-1.29-9.47.26a7,7,0,0,0-3.71,7.63,7,7,0,0,0-1.72-.22,6.89,6.89,0,1,0,0,13.78,7,7,0,0,0,2-.3A7.65,7.65,0,0,0,16.76,70C19.25,72.13,22.71,72.06,25.7,71.26ZM7,56.58a5.25,5.25,0,1,1,5.25,5.24A5.26,5.26,0,0,1,7,56.58Z" style="fill:#153240"/><path d="M48.41,8.84a8.86,8.86,0,0,0-3.47,2.37c-1.83,2.46.84,4.88,3.4,4.49,1.87-.29,3.29-1.68,5.1-2.11a3.18,3.18,0,0,1,3.92,2.91c0,.88,1.41.89,1.37,0a4.62,4.62,0,0,0-4.13-4.38,6.74,6.74,0,0,0-3.61,1c-1.2.63-2.66,1.6-4.07,1.14-1.64-.54-1.34-2-.21-2.92a17.45,17.45,0,0,1,3.81-2c2.73-1.18,5.8-2,8.75-1.12s5.42,3.82,4.41,7a.63.63,0,0,0,0,.51,6.88,6.88,0,0,0-.2,12.2.7.7,0,0,0-.1.52,6.22,6.22,0,0,1-2.76,6.34c-2.63,1.61-6,.87-8.69-.09-1.45-.51-2.86-1.14-4.26-1.78-1.11-.51-3.19-1.61-2.44-3.17.69-1.41,2.6-1.2,3.8-.76,1.38.5,2.6,1.36,4,1.75a5.12,5.12,0,0,0,6.26-3.3c.29-.84-1-1.19-1.32-.36a3.71,3.71,0,0,1-3.82,2.49c-1.83-.19-3.36-1.47-5.09-2a4.48,4.48,0,0,0-4.14.51,2.86,2.86,0,0,0-1,3.21A5.18,5.18,0,0,0,47,34.16a50.17,50.17,0,0,0,4.93,2c3,1,6.58,1.57,9.41-.17a7.6,7.6,0,0,0,3.44-7.5,7.1,7.1,0,0,0,2,.3,6.89,6.89,0,1,0,0-13.78,6.7,6.7,0,0,0-1.74.23,6.84,6.84,0,0,0-2.65-7c-2.61-2-6.14-2.1-9.21-1.32A26.24,26.24,0,0,0,48.41,8.84Zm23.65,13.1a5.25,5.25,0,1,1-5.24-5.25A5.25,5.25,0,0,1,72.06,21.94Z" style="fill:#153240"/><path d="M67.94,63.47a6.89,6.89,0,0,0,0-13.78,6.57,6.57,0,0,0-1.73.23,6.86,6.86,0,0,0-2.66-7c-2.61-2-6.14-2.1-9.2-1.32a25.7,25.7,0,0,0-4.81,1.85,8.9,8.9,0,0,0-3.48,2.36c-1.83,2.47.85,4.89,3.4,4.5,1.87-.29,3.29-1.68,5.1-2.11a3.18,3.18,0,0,1,3.92,2.91c0,.88,1.42.88,1.37,0a4.62,4.62,0,0,0-4.13-4.38,6.74,6.74,0,0,0-3.61,1c-1.2.62-2.66,1.6-4.07,1.14-1.64-.54-1.34-2-.21-2.92a17.45,17.45,0,0,1,3.81-2c2.73-1.18,5.81-2,8.75-1.12s5.42,3.82,4.41,7a.63.63,0,0,0,0,.51,6.88,6.88,0,0,0-.19,12.2.66.66,0,0,0-.11.52,6.22,6.22,0,0,1-2.76,6.34c-2.62,1.61-6,.87-8.69-.09-1.45-.51-2.86-1.14-4.26-1.78-1.1-.51-3.19-1.61-2.44-3.17s2.61-1.2,3.81-.76c1.37.5,2.59,1.36,4,1.75a5.12,5.12,0,0,0,6.26-3.3c.29-.84-1-1.19-1.32-.36a3.72,3.72,0,0,1-3.81,2.49c-1.84-.19-3.37-1.47-5.1-2a4.48,4.48,0,0,0-4.14.51A2.87,2.87,0,0,0,45.05,66a5.2,5.2,0,0,0,3.1,2.83,49.18,49.18,0,0,0,4.93,2c3,1,6.57,1.57,9.4-.17a7.61,7.61,0,0,0,3.44-7.51A6.77,6.77,0,0,0,67.94,63.47ZM62.7,56.58a5.24,5.24,0,1,1,5.24,5.24A5.25,5.25,0,0,1,62.7,56.58Z" style="fill:#153240"/><path d="M23.44,4.14a5.58,5.58,0,0,1,5-2.6c3.32-.07,6.64-.05,10-.07l9.7-.08c1.36,0,3-.35,4.14.42a7.41,7.41,0,0,1,2.49,2.67c.41.78,1.6.09,1.18-.69-1.06-2-3-3.81-5.39-3.79L38.43.09c-3.56,0-7.27-.24-10.8.12a6.68,6.68,0,0,0-5.37,3.24C21.84,4.23,23,4.92,23.44,4.14Z" style="fill:#9cefba"/></g></g></svg>