<svg xmlns="http://www.w3.org/2000/svg" xmlns:xlink="http://www.w3.org/1999/xlink" viewBox="0 0 162.88 159.47"><defs><clipPath id="clip-path"><rect id="SVGID" x="30.88" y="60.3" width="79.9" height="58.17" style="fill:none"/></clipPath><clipPath id="clip-path-2"><path id="SVGID-2" data-name="SVGID" d="M48.33,91.13v0a13.89,13.89,0,1,0,9.87,16.93l0,0c3.54-13.44,21.66-24,35.11-20.46h0a13.9,13.9,0,1,0-9.9-17h0c-3.55,13.44-21.67,24-35.11,20.47" style="fill:none"/></clipPath><linearGradient id="Degradado_sin_nombre" x1="693.07" y1="5616.19" x2="694.07" y2="5616.19" gradientTransform="matrix(-79.9, 0, 0, 79.9, 55482.66, -448661.59)" gradientUnits="userSpaceOnUse"><stop offset="0" stop-color="#fff"/><stop offset="0.98" stop-color="#1d1d1b"/><stop offset="1" stop-color="#1d1d1b"/></linearGradient><clipPath id="clip-path-3"><rect id="SVGID-3" data-name="SVGID" x="138.07" y="32.93" width="21.8" height="21.81" style="fill:none"/></clipPath><clipPath id="clip-path-4"><path id="SVGID-4" data-name="SVGID" d="M154.47,53.25a10.9,10.9,0,1,0-14.91-3.93,10.89,10.89,0,0,0,14.91,3.93" style="fill:none"/></clipPath><radialGradient id="Degradado_sin_nombre_10" cx="567.89" cy="6136.69" r="1" gradientTransform="matrix(10.9, 0, 0, -10.9, -6042.87, 66953.89)" xlink:href="#Degradado_sin_nombre"/></defs><title>Recurso 7@1x-</title><g style="isolation:isolate"><g id="Capa_2" data-name="Capa 2"><g id="Capa_1-2" data-name="Capa 1"><path d="M156,55.84a13.9,13.9,0,1,0-19-5,13.9,13.9,0,0,0,19,5" style="fill:#44cc7b"/><path d="M93.34,87.65l0,0a13.9,13.9,0,1,0-9.87-16.93v0c-3.55,13.44-21.67,24-35.11,20.47h0a13.9,13.9,0,1,0,9.9,17h0c3.54-13.44,21.66-24,35.11-20.46" style="fill:#28b6f2"/><path d="M37.78,55.84a13.89,13.89,0,0,0,19-5,13.5,13.5,0,0,0,1.37-3.45l.05.07C61.83,34,79.84,23.7,93.25,27.32l0-.07A13.87,13.87,0,1,0,96.88,0,13.86,13.86,0,0,0,83.5,10.34l0-.06C79.83,23.7,61.83,34,48.41,30.41l0,.07A13.87,13.87,0,0,0,37.78,55.84" style="fill:#28b6f2"/><path d="M156,92.56a13.9,13.9,0,0,0-19,5A13.36,13.36,0,0,0,135.6,101l0-.08c-3.62,13.43-21.62,23.77-35,20.14l0,.07a13.88,13.88,0,1,0,9.71,16.92l0,.06c3.63-13.42,21.63-23.76,35.05-20.14l0-.06A13.87,13.87,0,0,0,156,92.56" style="fill:#28b6f2"/><g style="opacity:0.38000500202178955;mix-blend-mode:multiply"><g style="clip-path:url(#clip-path)"><g style="clip-path:url(#clip-path-2)"><rect x="18.71" y="40.1" width="104.26" height="98.56" transform="matrix(0.83, -0.56, 0.56, 0.83, -38.05, 55.47)" style="fill:url(#Degradado_sin_nombre)"/></g></g></g><g style="opacity:0.2400050014257431;mix-blend-mode:multiply"><g style="clip-path:url(#clip-path-3)"><g style="clip-path:url(#clip-path-4)"><rect x="136.53" y="31.38" width="24.9" height="24.9" style="fill:url(#Degradado_sin_nombre_10)"/></g></g></g></g></g></g></svg>