<svg id="ICONS" xmlns="http://www.w3.org/2000/svg" viewBox="0 0 85 85"><title>Mesa de trabajo 58 copia</title><path d="M52.73,81.67C46.79,80.63,28.2,76,34.2,59.32c0,0,8.64-22.49,33.93-17,0,0,8.69,2.6,8.49,10.48,0,0-3.06,26-55.79,3.15,0,0-41.48-30.23,30.88-49.27" style="fill:none;stroke:#adb5bd;stroke-linecap:round;stroke-width:0.5px;stroke-dasharray:1.1380000114440918,1.1380000114440918"/><path d="M62.56,21.41a1.34,1.34,0,1,1-1.33-1.35,1.34,1.34,0,0,1,1.33,1.35M12,60.31a1.55,1.55,0,1,1-1.55-1.56A1.56,1.56,0,0,1,12,60.31" style="fill:#d8e2e8;fill-rule:evenodd"/><polygon points="10.84 18.02 9.76 18.02 9.76 16.93 9.04 16.93 9.04 18.02 7.97 18.02 7.97 18.75 9.04 18.75 9.04 19.83 9.76 19.83 9.76 18.75 10.84 18.75 10.84 18.02" style="fill:#d8e2e8;fill-rule:evenodd"/><polygon points="64.72 47.66 63.32 47.66 63.32 46.25 62.39 46.25 62.39 47.66 61 47.66 61 48.6 62.39 48.6 62.39 50.01 63.32 50.01 63.32 48.6 64.72 48.6 64.72 47.66" style="fill:#d8e2e8;fill-rule:evenodd"/><polygon points="30.53 70.25 29.46 70.25 29.46 69.17 28.74 69.17 28.74 70.25 27.66 70.25 27.66 70.98 28.74 70.98 28.74 72.06 29.46 72.06 29.46 70.98 30.53 70.98 30.53 70.25" style="fill:#d8e2e8;fill-rule:evenodd"/><path id="a" d="M73,40.82A1.81,1.81,0,0,0,72.77,38a2.06,2.06,0,0,0-2.57.27L58.62,49.39a1.14,1.14,0,0,1-1.54,0l-4.33-4.17A2.07,2.07,0,0,0,50.19,45a1.82,1.82,0,0,0-.25,2.84l7.14,6.86a1.14,1.14,0,0,0,1.54,0Z" style="fill:#3b4341;fill-rule:evenodd"/><path d="M36.74,48.17a10.2,10.2,0,0,1,7.39,10v6.3a1,1,0,0,1-.84,1.06H21.13a1,1,0,0,1-.83-1.06v-6.3a10.16,10.16,0,0,1,7.38-10,10.85,10.85,0,0,0,4.53,1,11,11,0,0,0,4.53-1m-.32-2.41a8.66,8.66,0,0,1-4.21,1.1A8.56,8.56,0,0,1,28.55,46a1.84,1.84,0,0,0-.82-.2,1.73,1.73,0,0,0-.32,0A12.46,12.46,0,0,0,18,58.21v6.3a3.26,3.26,0,0,0,3.13,3.36H43.29a3.26,3.26,0,0,0,3.14-3.36v-6.3c0-6.29-4.37-11.55-10-12.45Z" style="fill:#3b4341"/><path d="M32.62,26a5.2,5.2,0,0,1,5.19,5.19v4a5.2,5.2,0,0,1-5.19,5.19h-.81a5.2,5.2,0,0,1-5.2-5.19v-4A5.2,5.2,0,0,1,31.81,26h.81m0-2.3h-.81a7.51,7.51,0,0,0-7.49,7.49v4a7.51,7.51,0,0,0,7.49,7.49h.81a7.51,7.51,0,0,0,7.49-7.49v-4a7.51,7.51,0,0,0-7.49-7.49Z" style="fill:#3b4341"/></svg>