<?xml version="1.0" encoding="utf-8"?>
<!-- Generator: Adobe Illustrator 23.1.0, SVG Export Plug-In . SVG Version: 6.00 Build 0)  -->
<svg version="1.1" id="Capa_1" xmlns="http://www.w3.org/2000/svg" xmlns:xlink="http://www.w3.org/1999/xlink" x="0px" y="0px"
	 viewBox="0 0 80 80" style="enable-background:new 0 0 80 80;" xml:space="preserve">
<style type="text/css">
	.st0{fill:none;stroke:#AFB5BC;stroke-width:0.5;stroke-linecap:round;stroke-dasharray:1.138,1.138;}
	.st1{fill-rule:evenodd;clip-rule:evenodd;fill:#404543;}
	.st2{fill-rule:evenodd;clip-rule:evenodd;fill:#DBE2E8;}
	.st3{fill:#404543;}
</style>
<path class="st0" d="M50.4,78c-5.9-1-24.5-5.7-18.5-22.3c0,0,8.6-22.5,33.9-17c0,0,8.7,2.6,8.5,10.5c0,0-3.1,26-55.8,3.2
	c0,0-41.5-30.2,30.9-49.3"/>
<g>
	<path id="a" class="st1" d="M50.8,52.4c0.3-0.3,0.3-0.9-0.1-1.1c-0.3-0.2-0.8-0.2-1,0.1L45,55.8c-0.2,0.2-0.4,0.2-0.6,0l-1.7-1.7
		c-0.3-0.3-0.7-0.3-1-0.1c-0.4,0.3-0.4,0.8-0.1,1.1l2.9,2.8c0.2,0.2,0.4,0.2,0.6,0L50.8,52.4z"/>
</g>
<path class="st2" d="M60.3,17.7c0,0.7-0.6,1.3-1.3,1.3c-0.7,0-1.3-0.6-1.3-1.3c0-0.7,0.6-1.3,1.3-1.3C59.7,16.4,60.3,17,60.3,17.7
	 M9.7,56.6c0,0.9-0.7,1.6-1.5,1.6c-0.9,0-1.5-0.7-1.5-1.6s0.7-1.6,1.5-1.6C9,55.1,9.7,55.8,9.7,56.6"/>
<polygon class="st2" points="8.5,14.4 7.5,14.4 7.5,13.3 6.7,13.3 6.7,14.4 5.7,14.4 5.7,15.1 6.7,15.1 6.7,16.2 7.5,16.2 7.5,15.1 
	8.5,15.1 "/>
<polygon class="st2" points="62.4,44 61,44 61,42.6 60.1,42.6 60.1,44 58.7,44 58.7,44.9 60.1,44.9 60.1,46.3 61,46.3 61,44.9 
	62.4,44.9 "/>
<polygon class="st2" points="28.2,66.6 27.2,66.6 27.2,65.5 26.4,65.5 26.4,66.6 25.4,66.6 25.4,67.3 26.4,67.3 26.4,68.4 
	27.2,68.4 27.2,67.3 28.2,67.3 "/>
<g>
	<path class="st3" d="M27.8,20.5c0.8,0,1.5,0.7,1.5,1.6v14.4c0,3.1,2.5,5.6,5.5,5.6c1,0,2-0.3,2.8-0.8l15.5-9.7
		c0.2-0.1,0.5-0.2,0.7-0.2c0.7,0,1.5,0.6,1.5,1.6v27.9c0,0.9-0.7,1.6-1.5,1.6H21.7c-0.8,0-1.5-0.7-1.5-1.6V22.1
		c0-0.9,0.7-1.6,1.5-1.6H27.8 M27.8,18.5h-6.1c-1.9,0-3.5,1.6-3.5,3.6v38.8c0,2,1.6,3.6,3.5,3.6h32.1c1.9,0,3.5-1.6,3.5-3.6V33
		c0-2.1-1.7-3.6-3.5-3.6c-0.6,0-1.2,0.2-1.8,0.5l-15.5,9.7c-0.6,0.4-1.2,0.5-1.8,0.5c-1.8,0-3.5-1.5-3.5-3.6V22.1
		C31.2,20.1,29.7,18.5,27.8,18.5L27.8,18.5z"/>
</g>
</svg>
