<svg id="ICONS" xmlns="http://www.w3.org/2000/svg" viewBox="0 0 85 85"><title>Mesa de trabajo 58 copia 2</title><path d="M52.73,81.67C46.79,80.63,28.2,76,34.2,59.32c0,0,8.64-22.49,33.93-17,0,0,8.69,2.6,8.49,10.48,0,0-3.06,26-55.79,3.15,0,0-41.48-30.23,30.88-49.27" style="fill:none;stroke:#adb5bd;stroke-linecap:round;stroke-width:0.5px;stroke-dasharray:1.1380000114440918,1.1380000114440918"/><path d="M62.56,21.41a1.34,1.34,0,1,1-1.33-1.35,1.34,1.34,0,0,1,1.33,1.35M12,60.31a1.55,1.55,0,1,1-1.55-1.56A1.56,1.56,0,0,1,12,60.31" style="fill:#d8e2e8;fill-rule:evenodd"/><polygon points="10.84 18.02 9.76 18.02 9.76 16.93 9.04 16.93 9.04 18.02 7.97 18.02 7.97 18.75 9.04 18.75 9.04 19.83 9.76 19.83 9.76 18.75 10.84 18.75 10.84 18.02" style="fill:#d8e2e8;fill-rule:evenodd"/><polygon points="64.72 47.66 63.32 47.66 63.32 46.25 62.39 46.25 62.39 47.66 61 47.66 61 48.6 62.39 48.6 62.39 50.01 63.32 50.01 63.32 48.6 64.72 48.6 64.72 47.66" style="fill:#d8e2e8;fill-rule:evenodd"/><polygon points="30.53 70.25 29.46 70.25 29.46 69.17 28.74 69.17 28.74 70.25 27.66 70.25 27.66 70.98 28.74 70.98 28.74 72.06 29.46 72.06 29.46 70.98 30.53 70.98 30.53 70.25" style="fill:#d8e2e8;fill-rule:evenodd"/><path d="M49.85,64.28H24a4.46,4.46,0,0,1-4.46-4.46v-24A4.46,4.46,0,0,1,24,31.39H42.6a1,1,0,0,1,1,1h0a1,1,0,0,1-1,1H26a4.46,4.46,0,0,0-4.46,4.46v20A4.46,4.46,0,0,0,26,62.28H47.85a4.46,4.46,0,0,0,4.46-4.46V38.94a1,1,0,0,1,1-1h0a1,1,0,0,1,1,1V59.82A4.46,4.46,0,0,1,49.85,64.28Z" style="fill:#3b4341"/><polyline points="27.66 50.01 32.33 55.72 53.31 27.94" style="fill:none;stroke:#3b4341;stroke-linecap:round;stroke-linejoin:round;stroke-width:2px;fill-rule:evenodd"/></svg>