<?xml version="1.0" encoding="utf-8"?>
<!-- Generator: Adobe Illustrator 23.1.0, SVG Export Plug-In . SVG Version: 6.00 Build 0)  -->
<svg version="1.1" id="Capa_1" xmlns="http://www.w3.org/2000/svg" xmlns:xlink="http://www.w3.org/1999/xlink" x="0px" y="0px"
	 viewBox="0 0 361 329.4" style="enable-background:new 0 0 361 329.4;" xml:space="preserve">
<style type="text/css">
	.st0{fill-rule:evenodd;clip-rule:evenodd;fill:#F48787;}
	.st1{fill-rule:evenodd;clip-rule:evenodd;fill:url(#SVGID_1_);}
	.st2{fill:none;stroke:#F48787;stroke-width:7;stroke-linecap:round;stroke-miterlimit:10;}
</style>
<title>Recurso 1@1x-</title>
<g>
	<g id="Capa_1-2">
		<path id="Fill-5" class="st0" d="M110.1,109.1c-16.6,19.7-14,49,5.6,65.5s49,14,65.5-5.6c16.6-19.7,14-49-5.6-65.5
			c0,0,0,0-0.1-0.1C155.9,86.9,126.7,89.5,110.1,109.1 M187.1,173.7c-19.1,22.9-53.2,25.9-76.1,6.8s-25.9-53.2-6.8-76.1
			s53.2-25.9,76.1-6.8c0,0,0.1,0,0.1,0.1C203.2,116.9,206.3,150.9,187.1,173.7"/>
		<path id="Fill-7" class="st0" d="M172.6,106.9l-4.8,5.7c-14.5-12.2-36.2-10.3-48.4,4.2l-5.8-4.8
			C128.5,94.4,154.9,92.1,172.6,106.9"/>
		<path id="Fill-9" class="st0" d="M186.6,148.4l-7.3-1.7c1.5-6.7,1-13.6-1.4-20l7-2.7C187.8,131.8,188.4,140.3,186.6,148.4"/>
		<linearGradient id="SVGID_1_" gradientUnits="userSpaceOnUse" x1="76.8692" y1="164.6724" x2="284.0009" y2="164.6724">
			<stop  offset="0" style="stop-color:#449CC9"/>
			<stop  offset="1" style="stop-color:#44CC7B"/>
		</linearGradient>
		<path class="st1" d="M278.3,221.3l-65.4-46.5l-2.1,2.5l-5.3-4.4c16-28.3,10.2-64.9-15.7-86.6c0,0-0.1-0.1-0.1-0.1
			c-29.2-24.4-72.6-20.5-96.9,8.7c-24.4,29.2-20.5,72.6,8.7,96.9c25.9,21.6,63,21,88.1,0.2l5.2,4.4l-2,2.4l57.1,56.3
			c0.3,0.3,0.5,0.5,0.8,0.7c5.7,4.8,14.2,4.1,19-1.6l11.1-13.2l0,0c0.2-0.3,0.5-0.6,0.7-0.9C285.8,234.1,284.4,225.6,278.3,221.3z
			 M106.2,186c-25.9-21.8-29.2-60.5-7.4-86.4c21.8-25.9,60.4-29.2,86.3-7.5c0,0,0.1,0,0.1,0.1c25.9,21.8,29.2,60.5,7.4,86.4
			C170.8,204.5,132.1,207.8,106.2,186z M195.1,186.9c1.1-1.2,2.3-2.4,3.3-3.7c1.1-1.3,2.1-2.6,3-3.9l4.5,3.8l-6.3,7.6L195.1,186.9z
			 M275.1,236.3L264,249.5c-0.1,0.1-0.2,0.2-0.3,0.3c-2.3,2.4-6.1,2.4-8.5,0.1L203,198.4l8.8-10.6l2.4-2.8l59.7,42.5
			c1.4,1,2.3,2.5,2.5,4.1C276.7,233.3,276.2,235,275.1,236.3z"/>
		<line class="st2" x1="161.3" y1="124.9" x2="126.3" y2="159.9"/>
		<line class="st2" x1="126.3" y1="124.9" x2="161.3" y2="159.9"/>
	</g>
</g>
</svg>
