<svg xmlns="http://www.w3.org/2000/svg" viewBox="0 0 76.93 66.6"><title>Recurso 7@1x-</title><g id="Capa_2" data-name="Capa 2"><g id="observación"><path d="M76.84,19.05a8.67,8.67,0,0,0-1.77-2.82,36.29,36.29,0,0,0-4.21-4.47A45.8,45.8,0,0,0,55.08,2.4C47.35-.27,39-.49,31,.66,19.74,2.28,8,7.55,1.56,17.3A20.35,20.35,0,0,0,.29,19.46a.71.71,0,0,0,0,.53.6.6,0,0,0-.11.85A51,51,0,0,0,18.4,36.34a42.52,42.52,0,0,0,23.26,4.73c11.93-1,24.26-6.06,32-15.49C74.88,24.09,77.42,21.23,76.84,19.05ZM38.28,39.25A18.07,18.07,0,1,1,56.35,21.18,18.09,18.09,0,0,1,38.28,39.25ZM5,24.49a44.41,44.41,0,0,1-3.49-4.24l0-.05C6.07,11.4,15.79,5.87,25,3.39a56.67,56.67,0,0,1,9.46-1.68,19.83,19.83,0,0,0-5.5,37,38.23,38.23,0,0,1-4.11-1.17A50.77,50.77,0,0,1,5,24.49Zm70.37-4.64a9.62,9.62,0,0,1-1.5,3c-5.81,8.63-16.35,13.91-26.28,15.93l-.15,0A19.82,19.82,0,0,0,40.71,1.5,45,45,0,0,1,66.15,9.83a35,35,0,0,1,8.59,8.44,9,9,0,0,1,.63,1.06C75.46,19.57,75.47,19.54,75.39,19.85Z" style="fill:#153240"/><path d="M38.28,6.09a15.1,15.1,0,1,0,15.1,15.09A15.11,15.11,0,0,0,38.28,6.09Zm0,28.41A13.32,13.32,0,1,1,51.6,21.18,13.33,13.33,0,0,1,38.28,34.5Z" style="fill:#8eaab2"/><path d="M11.87,46.46V66.6H31.55V46.46ZM30.46,65.52H13v-18H30.46Z" style="fill:#707070"/><path d="M28.06,52.69a1.4,1.4,0,0,0-1.92,0L19.34,59c-.47-.48-.95-1-1.41-1.46a1.36,1.36,0,0,0-1-.39,1.33,1.33,0,0,0-1.35,1.35,1.43,1.43,0,0,0,.39,1c.71.75,1.45,1.48,2.16,2.23,0,.06.08.13.13.19a1.4,1.4,0,0,0,1.92,0l7.84-7.28A1.38,1.38,0,0,0,28.06,52.69Z" style="fill:#95d5e8"/><path d="M45.38,46.46V66.6H65.06V46.46ZM64,65.52H46.46v-18H64Z" style="fill:#707070"/><path d="M61.18,60.4q-2.07-1.89-4.1-3.83c1.37-1.31,2.72-2.64,4-4a1.35,1.35,0,0,0-1.91-1.91c-1.33,1.38-2.7,2.71-4.07,4-1.31-1.28-2.6-2.57-3.86-3.9a1.35,1.35,0,0,0-1.91,1.91c1.25,1.32,2.53,2.61,3.82,3.88-1.33,1.29-2.65,2.58-3.94,3.92a1.35,1.35,0,0,0,1.92,1.91c1.29-1.34,2.63-2.65,4-3.95,1.36,1.3,2.73,2.59,4.13,3.85a1.35,1.35,0,1,0,1.91-1.91Z" style="fill:#9cefba"/><rect x="31.03" y="55.99" width="14.75" height="1.08" style="fill:#707070"/><path d="M34.91,21.21a3.25,3.25,0,0,1,3.4-3.37,3.21,3.21,0,0,1,3.35,3.37,3.38,3.38,0,0,1-6.75,0Z" style="fill:#153240"/></g></g></svg>