<?xml version="1.0" encoding="utf-8"?>
<!-- Generator: Adobe Illustrator 23.1.0, SVG Export Plug-In . SVG Version: 6.00 Build 0)  -->
<svg version="1.1" id="Capa_1" xmlns="http://www.w3.org/2000/svg" xmlns:xlink="http://www.w3.org/1999/xlink" x="0px" y="0px"
	 viewBox="0 0 64 64" style="enable-background:new 0 0 64 64;" xml:space="preserve">
<style type="text/css">
	.st0{fill:url(#SVGID_1_);}
	.st1{fill:url(#SVGID_2_);}
	.st2{fill:url(#SVGID_3_);}
</style>
<linearGradient id="SVGID_1_" gradientUnits="userSpaceOnUse" x1="18.0258" y1="33" x2="45.1372" y2="33">
	<stop  offset="0" style="stop-color:#449CC9"/>
	<stop  offset="1" style="stop-color:#44CC7B"/>
</linearGradient>
<path class="st0" d="M29.8,44.9c-0.4,0-0.7-0.1-1-0.4l-10.2-9.2c-0.6-0.6-0.7-1.5-0.1-2.1c0,0,0,0,0,0l3.8-4.1
	c0.6-0.6,1.5-0.6,2.1-0.1l4.5,3.9l10.1-11.3c0.3-0.3,0.7-0.5,1.1-0.5c0.4,0,0.8,0.2,1.1,0.5l3.6,4.3c0.5,0.6,0.5,1.4,0,1.9
	L30.9,44.4c-0.3,0.3-0.6,0.5-1,0.5C29.8,44.9,29.8,44.9,29.8,44.9z M21.7,34.1l7.9,7.1l12.1-14.4l-1.7-2L30.1,36
	c-0.5,0.6-1.5,0.7-2.1,0.1l-4.5-4L21.7,34.1z"/>
<linearGradient id="SVGID_2_" gradientUnits="userSpaceOnUse" x1="7.2652" y1="31.9975" x2="56.7404" y2="31.9975">
	<stop  offset="0" style="stop-color:#449CC9"/>
	<stop  offset="1" style="stop-color:#44CC7B"/>
</linearGradient>
<path class="st1" d="M32,56.7C18.3,56.7,7.3,45.7,7.3,32c0-5,1.5-10,4.4-14.1c0.5-0.7,1.4-0.8,2.1-0.4c0.7,0.5,0.8,1.4,0.4,2.1
	C7.3,29.5,9.7,43,19.6,49.8s23.4,4.4,30.2-5.5s4.4-23.4-5.5-30.2c-7.2-5-16.8-5.2-24.2-0.4c-0.7,0.4-1.6,0.2-2.1-0.4
	c-0.4-0.7-0.2-1.6,0.4-2.1c11.5-7.4,26.8-4.1,34.2,7.4s4.1,26.8-7.4,34.2C41.4,55.4,36.8,56.7,32,56.7z"/>
<linearGradient id="SVGID_3_" gradientUnits="userSpaceOnUse" x1="14.7178" y1="14.8192" x2="17.9965" y2="14.8192">
	<stop  offset="0" style="stop-color:#449CC9"/>
	<stop  offset="1" style="stop-color:#44CC7B"/>
</linearGradient>
<path class="st2" d="M16.2,16.4c-0.8,0-1.5-0.7-1.5-1.5c0-0.4,0.2-0.8,0.5-1.1l0.3-0.3c0.6-0.6,1.6-0.5,2.1,0.1
	c0.6,0.6,0.5,1.6-0.1,2.1c0,0,0,0,0,0L17.2,16C17,16.3,16.6,16.4,16.2,16.4z"/>
</svg>
