<svg xmlns="http://www.w3.org/2000/svg" viewBox="0 0 76.06 76.65"><title>Recurso 5@1x-</title><g id="Capa_2" data-name="Capa 2"><g id="proyecto_2" data-name="proyecto 2"><path d="M61.14,11.17C57.5,7.51,53.77,3.94,50.13.28,49.83,0,49,0,48.83,0,38.41,0,17.45,0,17.39,0a.89.89,0,0,0-1,.91V9.78a13.89,13.89,0,0,1,1.9.38V1.9H48.63c0,3.66,0,7.32-.08,11,0,.82.83.94,1.28.95,3.21.05,6.43,0,9.65,0V41.09c.49,0,1.77,0,1.9,0V12A.85.85,0,0,0,61.14,11.17Zm-10.68.76c0-2.87.06-5.73.06-8.59,2.89,2.87,5.81,5.71,8.69,8.59Z" style="fill:#153240"/><path d="M18.31,53.31h-1.9v6.29a.9.9,0,0,0,1.05.9.78.78,0,0,0,.23,0H40.5v-1.9H18.31Z" style="fill:#153240"/><path d="M49.58,40.66H25.07a1,1,0,0,1,0-1.9H49.58A1,1,0,0,1,49.58,40.66Z" style="fill:#9cefba"/><path d="M27.89,31.72H49.58a1,1,0,0,0,0-1.9H28.69A18.45,18.45,0,0,1,27.89,31.72Z" style="fill:#9cefba"/><path d="M43.75,48H25.46a1,1,0,0,0,0,1.9H42.72C42.57,49.25,43.34,48.32,43.75,48Z" style="fill:#9cefba"/><path d="M74.9,55.6a9,9,0,0,0-1.61-.22,2,2,0,0,1-2.22-1.71c-.11-.41-.18-.69.11-1,.56-.68,1.06-1.39,1.59-2.1a1.22,1.22,0,0,0-.08-1.74c-1.14-1.17-2.28-2.32-3.45-3.45a1.19,1.19,0,0,0-1.68-.09,8.27,8.27,0,0,0-1.29,1,2,2,0,0,1-2.78.39,1.07,1.07,0,0,1-.69-.89c-.1-.82-.23-1.63-.35-2.45S62,42.14,61.38,42A2.74,2.74,0,0,0,61,42H56.47A1.27,1.27,0,0,0,55,43.24c-.12.79-.25,1.58-.33,2.38,0,.55-.34.77-.81,1a1.94,1.94,0,0,1-2.65-.42,9.55,9.55,0,0,0-1.3-1,1.5,1.5,0,0,0-.87-.4,1.41,1.41,0,0,0-.86.5c-.91.88-1.79,1.78-2.68,2.67l-.72.72a1.2,1.2,0,0,0-.38,1.18,1.48,1.48,0,0,0,.26.56,10.42,10.42,0,0,0,1,1.29,2,2,0,0,1,.41,2.72,1.22,1.22,0,0,1-1,.76c-.82.09-1.63.22-2.45.33a1.22,1.22,0,0,0-1.19,1.27c0,.59,0,1.18,0,1.77v3.11A1.22,1.22,0,0,0,42.6,63a9.74,9.74,0,0,0,1.6.21,2,2,0,0,1,2.18,1.67,1.12,1.12,0,0,1-.17,1.18c-.54.65-1,1.35-1.54,2a1.22,1.22,0,0,0,.12,1.74q1.68,1.71,3.39,3.39a1.22,1.22,0,0,0,1.74.11,9.72,9.72,0,0,0,1.29-1,2,2,0,0,1,2.72-.4c.43.25.68.45.74.94.08.82.21,1.63.34,2.45s.53,1.25,1.37,1.26c1.57,0,3.15,0,4.72,0a1.23,1.23,0,0,0,1.34-1.2,8.92,8.92,0,0,0,.23-1.61,2,2,0,0,1,1.68-2.15,1.06,1.06,0,0,1,1.11.13c.67.56,1.39,1.06,2.1,1.58a1.19,1.19,0,0,0,1.68-.09q1.74-1.7,3.45-3.44a1.21,1.21,0,0,0,.12-1.68,8.82,8.82,0,0,0-.93-1.23,2,2,0,0,1-.4-2.9,1.47,1.47,0,0,1,.74-.6c.88-.19,1.78-.27,2.67-.41a1.24,1.24,0,0,0,1.16-1.32c0-1.59,0-3.19,0-4.79A1.24,1.24,0,0,0,74.9,55.6ZM58.69,64.26a4.94,4.94,0,0,1-4.75-3.72,4.54,4.54,0,0,1-.16-1.28,4.21,4.21,0,0,1,0-.62,4.93,4.93,0,0,1,4.9-4.27,4.74,4.74,0,0,1,.75.06,4.87,4.87,0,0,1,1.9.72,4.94,4.94,0,0,1-2.69,9.11Z" style="fill:#95d5e8"/><path d="M27.4,29.65a14.56,14.56,0,0,0-4.35-15.54A14.49,14.49,0,0,0,6.91,12.82,14.31,14.31,0,0,0,.14,27.17c.56,4,3.09,6.75,5.17,10a17.71,17.71,0,0,1,2.33,5.59H3.75a1,1,0,0,0,0,1.9H8a15.32,15.32,0,0,1-.41,5.45s0,0,0,.05a.94.94,0,0,0,.84,1.34c3.58,0,7.17.07,10.75.07A.94.94,0,0,0,20,50.27,13.87,13.87,0,0,1,20,44.71H23.3a1,1,0,0,0,0-1.9H20.51a23.27,23.27,0,0,1,2-4.5C24.2,35.44,26.3,32.81,27.4,29.65ZM18,49.72,9.6,49.66a16.33,16.33,0,0,0,.23-4.95H18.1A16.14,16.14,0,0,0,18,49.72Zm1.46-9.37a24.09,24.09,0,0,0-.87,2.46h-9a25.37,25.37,0,0,0-4.42-9.18C3.19,31,1.82,28.23,1.89,24.86A12.7,12.7,0,0,1,5,16.78a12.49,12.49,0,0,1,16.4-1.57,12.72,12.72,0,0,1,3.16,16.18C22.93,34.44,20.76,37.15,19.41,40.35Z" style="fill:#8eaab2"/><path d="M16.56,30.81a.94.94,0,0,0-.73-.1,1.12,1.12,0,0,0-.57.44l-1.6,2.09-1.74-2.09a.93.93,0,0,0-.67-.28,1,1,0,0,0-.95.95,1.09,1.09,0,0,0,.28.67l2.3,2.77v4.15a1,1,0,1,0,1.9,0V34.88l2.12-2.77a.94.94,0,0,0,.09-.73A1,1,0,0,0,16.56,30.81Z" style="fill:#8eaab2"/><path d="M12.54,8.28a1.9,1.9,0,0,0,0-3.79A1.9,1.9,0,0,0,12.54,8.28Z" style="fill:#9cefba"/><path d="M1.73,10.92a1.56,1.56,0,0,0,.62.39,1.4,1.4,0,0,0,.73.16l.5-.07a2,2,0,0,0,.84-.48l.3-.39a2,2,0,0,0,.26-1V9.46a1.54,1.54,0,0,0-.17-.73,1.42,1.42,0,0,0-.39-.61,1.42,1.42,0,0,0-.61-.39,1.43,1.43,0,0,0-.73-.17l-.51.07a2,2,0,0,0-.84.49c-.09.13-.19.26-.29.38a1.92,1.92,0,0,0-.26,1v.11a1.4,1.4,0,0,0,.16.73A1.56,1.56,0,0,0,1.73,10.92Z" style="fill:#9cefba"/><path d="M20.54,10.92l.39.29a1.86,1.86,0,0,0,.95.26H22a1.44,1.44,0,0,0,.74-.16,1.59,1.59,0,0,0,.61-.39,1.56,1.56,0,0,0,.39-.62,1.4,1.4,0,0,0,.16-.73l-.06-.5a2.09,2.09,0,0,0-.49-.84L23,7.93a2,2,0,0,0-1-.26h-.11a1.54,1.54,0,0,0-.73.17,1.42,1.42,0,0,0-.61.39,1.52,1.52,0,0,0-.39.61,1.42,1.42,0,0,0-.16.73l.06.51A2,2,0,0,0,20.54,10.92Z" style="fill:#9cefba"/></g></g></svg>