<svg xmlns="http://www.w3.org/2000/svg" viewBox="0 0 76.79 76.64"><title>Recurso 3@1x-</title><g id="Capa_2" data-name="Capa 2"><g id="req_legales" data-name="req legales"><path d="M72.48,0H4.3A4.31,4.31,0,0,0,0,4.3V14.69a.52.52,0,0,0,.52.52A.52.52,0,0,0,1,14.69V11.45a.63.63,0,0,0,.31.09H75.66l.09,0V72.33a3.28,3.28,0,0,1-3.27,3.27H4.3A3.27,3.27,0,0,1,1,72.33V20.4a.52.52,0,0,0-.52-.52A.52.52,0,0,0,0,20.4V72.33a4.31,4.31,0,0,0,4.3,4.31H72.48a4.31,4.31,0,0,0,4.31-4.31V4.3A4.31,4.31,0,0,0,72.48,0Zm3.18,10.24H1.35a.62.62,0,0,0-.31.08v-6A3.26,3.26,0,0,1,4.3,1H72.48A3.27,3.27,0,0,1,75.75,4.3v6Z" style="fill:#153240"/><path d="M71.89,5.17H63.4a.65.65,0,0,0,0,1.3h8.49A.65.65,0,0,0,71.89,5.17Z" style="fill:#153240"/><path d="M7.71,5.17h-2a.66.66,0,0,0-.65.65.67.67,0,0,0,.65.65h2a.66.66,0,0,0,.65-.65A.67.67,0,0,0,7.71,5.17Z" style="fill:#153240"/><path d="M14,5.17H11.87a.66.66,0,0,0-.65.65.67.67,0,0,0,.65.65H14a.66.66,0,0,0,.65-.65A.67.67,0,0,0,14,5.17Z" style="fill:#153240"/><path d="M20.65,5.17H18.76a.65.65,0,1,0,0,1.3h1.89a.66.66,0,0,0,.65-.65A.67.67,0,0,0,20.65,5.17Z" style="fill:#153240"/><path d="M64.81,67.93H59.34a3.3,3.3,0,0,1-3.29-3.29V59a3.29,3.29,0,0,1,3.29-3.29h5.47A3.29,3.29,0,0,1,68.1,59v5.61A3.29,3.29,0,0,1,64.81,67.93ZM59.34,56.7A2.32,2.32,0,0,0,57,59v5.61A2.32,2.32,0,0,0,59.34,67h5.47a2.32,2.32,0,0,0,2.33-2.32V59a2.33,2.33,0,0,0-2.33-2.33Z" style="fill:#9cefba"/><path d="M64.71,49.81H59.23A3.28,3.28,0,0,1,56,46.52V40.91a3.28,3.28,0,0,1,3.28-3.29h5.48A3.29,3.29,0,0,1,68,40.91v5.61A3.29,3.29,0,0,1,64.71,49.81ZM59.23,38.58a2.33,2.33,0,0,0-2.32,2.33v5.61a2.33,2.33,0,0,0,2.32,2.33h5.48A2.33,2.33,0,0,0,67,46.52V40.91a2.33,2.33,0,0,0-2.32-2.33Z" style="fill:#8eaab2"/><path d="M69.59,36.88,62.7,44c-.15-.16-.3-.3-.43-.46a6.1,6.1,0,0,1-.4-.59.61.61,0,0,0-.36-.27.57.57,0,0,0-.46.06.59.59,0,0,0-.22.82,7.38,7.38,0,0,0,1.4,1.7.63.63,0,0,0,.42.17h.09a.53.53,0,0,0,.43-.18l7.28-7.47C71,37.18,70.14,36.32,69.59,36.88Z" style="fill:#8eaab2"/><path d="M64.78,31.78H59.3A3.29,3.29,0,0,1,56,28.49V22.88a3.28,3.28,0,0,1,3.28-3.29h5.48a3.29,3.29,0,0,1,3.29,3.29v5.61A3.3,3.3,0,0,1,64.78,31.78ZM59.3,20.55A2.32,2.32,0,0,0,57,22.88v5.61a2.32,2.32,0,0,0,2.32,2.32h5.48a2.32,2.32,0,0,0,2.32-2.32V22.88a2.32,2.32,0,0,0-2.32-2.33Z" style="fill:#95d5e8"/><path d="M69.66,18.85q-3.43,3.54-6.89,7.07a4.68,4.68,0,0,1-.43-.46c-.14-.19-.28-.38-.4-.58a.63.63,0,0,0-.36-.28.61.61,0,0,0-.68.89,7.55,7.55,0,0,0,1.4,1.69.6.6,0,0,0,.42.18l.09,0a.53.53,0,0,0,.43-.18q3.65-3.72,7.28-7.46C71.06,19.14,70.21,18.29,69.66,18.85Z" style="fill:#95d5e8"/><path d="M50.79,50.21s0-.05-.07-.07c-4.66-2.77-9.23-5.67-13.88-8.44a.64.64,0,0,0-.3-.09.65.65,0,0,0-.89.61c0,2.51,0,5,0,7.53-4.4-2.71-8.72-5.54-13.13-8.23a.63.63,0,0,0-.94.38s0,.05,0,.08v0a.65.65,0,0,0,0,.2c0,2.67,0,5.34,0,8H19.06c-.26-7.85-.63-15.68-.89-23.53a.82.82,0,0,0-.73-.68H12.76a.68.68,0,0,0-.67.67s0,.08,0,.11c-.44,7.82-1.2,15.61-1.65,23.43H8.12a.63.63,0,0,0-.31.05.45.45,0,0,0-.12.06l-.1.07-.07.1-.06.11a.7.7,0,0,0,0,.32V66.71a.65.65,0,0,0,.06.29.64.64,0,0,0,.63.77c14.06,0,28.12.16,42.18.16a.53.53,0,0,0,.17,0,.63.63,0,0,0,.74-.63V50.8A.61.61,0,0,0,50.79,50.21ZM35.51,58.85l4,0v7.72l-4,0Zm5.3,0,3.9,0c0,2.59,0,5.18,0,7.77l-3.92,0Zm5.24-.64a.61.61,0,0,0-.5-.62.6.6,0,0,0-.34-.1c-3.45,0-6.91,0-10.36,0a.58.58,0,0,0-.54.31.55.55,0,0,0-.14.39v8.32q-12.72-.07-25.42-.1V51.57H22.11a.64.64,0,0,0,.71-.64c0-2.55,0-5.09,0-7.64,4.37,2.7,8.67,5.51,13.06,8.18l.08,0A.66.66,0,0,0,37,51c0-2.53,0-5.06,0-7.59,4.3,2.58,8.55,5.25,12.85,7.82V66.59l-3.76,0C46.07,63.77,46.05,61,46.05,58.18ZM13.42,27.36h3.43l.09,2.33H13.26C13.32,28.92,13.37,28.14,13.42,27.36ZM13.18,31H17c.24,6.4.51,12.8.72,19.2H11.8C12.17,43.82,12.74,37.43,13.18,31Z" style="fill:#153240"/><path d="M18.38,54.42H11.47a.6.6,0,0,0-.62.53.6.6,0,0,0-.06.27v3.15a.68.68,0,0,0,.67.67h6.92a.64.64,0,0,0,.64-.71V55.25a.43.43,0,0,1,0,0A.64.64,0,0,0,18.38,54.42Zm-6.25,1.33h5.55v1.93H12.13Z" style="fill:#153240"/><path d="M29.53,54.34H22.67l-.12,0-.12,0a.69.69,0,0,0-.67.67v3.36a.54.54,0,0,0,0,.21.6.6,0,0,0,.62.53h7a.6.6,0,0,0,.62-.5.69.69,0,0,0,.05-.24c0-1.08,0-2.16,0-3.23h0A.64.64,0,0,0,29.53,54.34ZM23.1,55.68h5.72l0,2.09H23.1Z" style="fill:#153240"/><path d="M10.24,22.81a11.09,11.09,0,0,1,2.51,0,3.63,3.63,0,0,1,2,1.08c.61.63,1.55-.32.95-.94a5.57,5.57,0,0,0-4.49-1.54c-1.33.06-3,.3-4-.84-.57-.65-1.51.3-1,1A4.81,4.81,0,0,0,10.24,22.81Z" style="fill:#153240"/></g></g></svg>