<svg xmlns="http://www.w3.org/2000/svg" viewBox="0 0 75.4 75.25"><title>Recurso 1@1x-</title><g id="Capa_2" data-name="Capa 2"><g id="req_legales" data-name="req legales"><path d="M47.25,28.58a3.11,3.11,0,0,0-3.11-3.11H30.94V22.65a3.56,3.56,0,1,0-7.11,0v2.82H10.63a3.11,3.11,0,1,0,0,6.22h4l-.08.07C12.86,34.1,11,36.33,9.23,38.65H8v2.74a4.9,4.9,0,0,0,4.89,4.9h4.24A4.91,4.91,0,0,0,22,41.39V38.65H20.84a.76.76,0,0,0,0-.11C19.24,36.23,17.59,34,16,31.69h7.82V52.62H21.29a2.9,2.9,0,0,0-2.89,2.89V58.2h-.11a2.62,2.62,0,0,0-2.63,2.62v3.45H39.12V60.82a2.62,2.62,0,0,0-2.63-2.62h-.12V55.51a2.89,2.89,0,0,0-2.88-2.89H30.94V31.69h7.44l-4.7,7H32.25v2.74a4.91,4.91,0,0,0,4.9,4.9h4.23a4.91,4.91,0,0,0,4.9-4.9V38.65H44.79c-1.49-2.39-3.19-4.65-4.8-7h4.15A3.11,3.11,0,0,0,47.25,28.58Zm-22.4,3.69a4.46,4.46,0,0,0,5.07,0V52.51H24.85Zm2.54-12.15a2.53,2.53,0,0,1,2.53,2.53v2.23a4.46,4.46,0,0,0-5.07,0V22.65A2.54,2.54,0,0,1,27.39,20.12ZM21,39.68v1.71a3.88,3.88,0,0,1-3.87,3.88H12.88A3.88,3.88,0,0,1,9,41.39V39.68Zm-1.67-1H10.84c1.47-1.92,3-3.81,4.47-5.74C16.64,34.82,18,36.72,19.32,38.65Zm-8.69-8a2.09,2.09,0,0,1,0-4.18H23.44a4.31,4.31,0,0,0,0,4.18ZM36.49,59.22a1.61,1.61,0,0,1,1.61,1.6v2.43H16.68V60.82a1.61,1.61,0,0,1,1.61-1.6Zm-3-5.58a1.87,1.87,0,0,1,1.86,1.87v2.63H19.42V55.51a1.87,1.87,0,0,1,1.87-1.87Zm11-14h.73v1.71a3.88,3.88,0,0,1-3.88,3.88H37.15a3.88,3.88,0,0,1-3.87-3.88V39.68h10.8A.69.69,0,0,0,44.53,39.68Zm-1.26-1H35.22c1.32-2,2.65-3.92,4-5.89C40.56,34.72,42,36.65,43.27,38.65Zm-11.94-8a4.31,4.31,0,0,0,0-4.18H44.14a2.09,2.09,0,0,1,0,4.18Z" style="fill:#153240"/><path d="M63.54,50.62H58.59a3,3,0,0,0-3,3v5.07a3,3,0,0,0,3,3h4.95a3,3,0,0,0,3-3V53.6A3,3,0,0,0,63.54,50.62Zm2.1,8.05a2.1,2.1,0,0,1-2.1,2.1H58.59a2.1,2.1,0,0,1-2.1-2.1V53.6a2.11,2.11,0,0,1,2.1-2.11h4.95a2.11,2.11,0,0,1,2.1,2.11Z" style="fill:#9cefba"/><path d="M67.86,33.57l-1.94,2a3,3,0,0,0-2.48-1.33H58.5a3,3,0,0,0-3,3v5.07a3,3,0,0,0,3,3h4.94a3,3,0,0,0,3-3V37.22a2.51,2.51,0,0,0-.06-.55l2.27-2.32C69.12,33.84,68.35,33.07,67.86,33.57Zm-2.31,8.72a2.11,2.11,0,0,1-2.11,2.1H58.5a2.11,2.11,0,0,1-2.11-2.1V37.22a2.12,2.12,0,0,1,2.11-2.11h4.94a2.08,2.08,0,0,1,1.84,1.11L61.63,40c-.13-.14-.27-.27-.39-.41s-.25-.35-.36-.53a.52.52,0,0,0-.33-.25.54.54,0,0,0-.61.8,6.85,6.85,0,0,0,1.26,1.53.57.57,0,0,0,.39.16h.07a.53.53,0,0,0,.4-.17l3.49-3.58Z" style="fill:#8eaab2"/><path d="M58.56,29h4.95a3,3,0,0,0,3-3V20.91a3.1,3.1,0,0,0,0-.54L68.7,18c.49-.5-.28-1.27-.77-.77l-2,2a3,3,0,0,0-2.47-1.32H58.56a3,3,0,0,0-3,3V26A3,3,0,0,0,58.56,29Zm-2.1-8a2.1,2.1,0,0,1,2.1-2.1h4.95a2.11,2.11,0,0,1,1.84,1.1l-3.66,3.76c-.13-.14-.27-.27-.39-.42s-.25-.34-.36-.53a.57.57,0,0,0-.32-.25.56.56,0,0,0-.42.06.54.54,0,0,0-.2.74,6.91,6.91,0,0,0,1.26,1.54.62.62,0,0,0,.39.16l.08,0a.5.5,0,0,0,.39-.16c1.16-1.2,2.33-2.39,3.49-3.58V26a2.11,2.11,0,0,1-2.1,2.1H58.56a2.11,2.11,0,0,1-2.1-2.1Z" style="fill:#95d5e8"/><path d="M71.17,0H4.23A4.24,4.24,0,0,0,0,4.23V14.42a.51.51,0,0,0,.51.51A.51.51,0,0,0,1,14.42V11.25a.75.75,0,0,0,.31.08h73l.09,0V71a3.21,3.21,0,0,1-3.21,3.21H4.23A3.21,3.21,0,0,1,1,71V20a.51.51,0,1,0-1,0V71a4.24,4.24,0,0,0,4.23,4.23H71.17A4.24,4.24,0,0,0,75.4,71V4.23A4.24,4.24,0,0,0,71.17,0Zm3.12,10.05h-73a.75.75,0,0,0-.31.08V4.23A3.21,3.21,0,0,1,4.23,1H71.17a3.21,3.21,0,0,1,3.21,3.21v5.84Z" style="fill:#153240"/><path d="M70.59,5.07H62.26a.64.64,0,0,0,0,1.28h8.33A.64.64,0,0,0,70.59,5.07Z" style="fill:#153240"/><path d="M7.57,5.07H5.64A.64.64,0,0,0,5,5.71a.65.65,0,0,0,.64.64H7.57a.65.65,0,0,0,.64-.64A.66.66,0,0,0,7.57,5.07Z" style="fill:#153240"/><path d="M13.74,5.07H11.66a.64.64,0,0,0,0,1.28h2.08a.65.65,0,0,0,.64-.64A.67.67,0,0,0,13.74,5.07Z" style="fill:#153240"/><path d="M20.28,5.07H18.42a.64.64,0,0,0,0,1.28h1.86a.64.64,0,0,0,.63-.64A.65.65,0,0,0,20.28,5.07Z" style="fill:#153240"/></g></g></svg>