<svg xmlns="http://www.w3.org/2000/svg" viewBox="0 0 115 115"><title>Recurso 9@1x-</title><g id="Capa_2" data-name="Capa 2"><g id="Capa_1-2" data-name="Capa 1"><path d="M115,57.5A57.5,57.5,0,1,1,57.5,0,57.5,57.5,0,0,1,115,57.5" style="fill:#263238"/><path d="M100.71,89.89l-.18-.16c-1.1-1-3.62-2.67-8.23-3.23-.06,0-3.9-.85-8.21-2.27a71.68,71.68,0,0,1-9.44-4l-.13-.07V80A14.37,14.37,0,0,0,73,73.7l-2.56-.94c-.07,0-1-.54-.88-1.3l-.28-6.29,0-.06a31.12,31.12,0,0,0,3.8-9.8l.07-.31.27.16a.45.45,0,0,0,.4,0c.29-.1.74-.48,1.19-1.65,1-2.7,2.61-8.46,1.57-9.52-.07-.07-.27-.27-.83-.06l-.33.12,1.13-11.64a12.56,12.56,0,0,0-.8-4.46A5,5,0,0,0,74.56,26a2.29,2.29,0,0,0-1-.5.87.87,0,0,1-.75-.91c-.1-1.13-.94-1.95-2.68-3.24s-5-3.71-12.2-3.72H56.78c-.63,0-1.34,0-1.85,0a8.59,8.59,0,0,1-3.16-.92,3.93,3.93,0,0,0,1,1.12,4.32,4.32,0,0,0,.76.43c.06,0,.23.1.19.28s-.21.19-.28.19a8,8,0,0,1-.93,0,9.53,9.53,0,0,1-1.09-.19h0c.19.06.36.12.35.32s-.22.22-.29.23c-6.84,1.17-7.87,3.77-8.61,5.66a3.52,3.52,0,0,1-1.09,1.74,7.71,7.71,0,0,0-3.09,6L39.8,44.05l-.34-.12c-.56-.21-.76,0-.82.06-1,1.06.53,6.82,1.56,9.52.45,1.17.9,1.55,1.19,1.65a.49.49,0,0,0,.41,0l.26-.15.07.3a31.12,31.12,0,0,0,3.8,9.8l0,.06-.28,6.33c.11.72-.81,1.22-.84,1.24l-2.59,1A19.33,19.33,0,0,0,40.68,80v.13l-.11.07a73.14,73.14,0,0,1-9.44,4h0C26.8,85.65,23,86.49,22.93,86.5c-4.64.56-7.16,2.27-8.25,3.23l-.19.16-.14-.19A53.6,53.6,0,0,1,3.53,57.25a54.07,54.07,0,0,1,108.14,0A53.6,53.6,0,0,1,100.85,89.7ZM75,79.9a70.35,70.35,0,0,0,9.25,3.91c4.29,1.4,8.1,2.24,8.14,2.25a15.56,15.56,0,0,1,8.27,3.18A53.62,53.62,0,1,0,4,57.25a53.2,53.2,0,0,0,10.58,32,15.61,15.61,0,0,1,8.29-3.18s3.84-.85,8.12-2.25a70.9,70.9,0,0,0,9.26-3.91,20.13,20.13,0,0,1,1.66-6.47l0-.09,2.74-1s.65-.38.59-.82l.27-6.23a31.69,31.69,0,0,1-3.78-9.65.89.89,0,0,1-.47,0c-.57-.19-1.07-.83-1.49-1.92,0-.08-3.07-8.37-1.46-10a1,1,0,0,1,1-.27L38.22,32.46a8.06,8.06,0,0,1,3.29-6.38,3.25,3.25,0,0,0,.92-1.53c.72-1.83,1.8-4.56,8.34-5.83a.91.91,0,0,1-.17-.09c-1.22-.76-1.16-.87-1.09-1l.1-.19.21.09a11.36,11.36,0,0,0,2.71.74h0l-.09-.06A4.06,4.06,0,0,1,51,16l0-.14.15,0a.24.24,0,0,1,.26.12A7.23,7.23,0,0,0,55,17.18c.5,0,1.21,0,1.83,0H58c7.37,0,10.81,2.58,12.46,3.81,1.84,1.38,2.74,2.26,2.85,3.57,0,.38.11.4.45.51a2.88,2.88,0,0,1,1.12.59,5.32,5.32,0,0,1,1.31,2.08A12.8,12.8,0,0,1,77,32.44l-1.07,11a1,1,0,0,1,1,.27c1.61,1.62-1.43,9.91-1.46,10-.42,1.09-.91,1.73-1.48,1.92a.94.94,0,0,1-.48,0,32.09,32.09,0,0,1-3.77,9.65L70,71.48c-.07.49.6.86.61.87l2.7,1,0,.08A14.69,14.69,0,0,1,75,79.9" style="fill:#f7f7f7"/><path d="M57.6,111.32A53.65,53.65,0,0,1,14.35,89.7l-.13-.17.16-.13c1.13-1,3.73-2.77,8.47-3.34,0,0,3.84-.85,8.12-2.25a70.9,70.9,0,0,0,9.26-3.91,20.28,20.28,0,0,1,1.65-6.47l0-.09,2.74-1s.65-.37.59-.81l.26-6.23a32.09,32.09,0,0,1-3.77-9.65.94.94,0,0,1-.48,0c-.56-.19-1.06-.84-1.48-1.92,0-.08-3.07-8.37-1.46-10a1,1,0,0,1,1-.27l-1.06-11a8.06,8.06,0,0,1,3.29-6.37,3.24,3.24,0,0,0,.92-1.54c.72-1.82,1.8-4.55,8.34-5.82a.91.91,0,0,1-.17-.09c-1.22-.76-1.16-.87-1.09-1l.1-.19.21.08a10.83,10.83,0,0,0,2.71.75h0l-.09-.06A4.06,4.06,0,0,1,51,16l0-.14.14,0a.26.26,0,0,1,.27.12A7.23,7.23,0,0,0,55,17.18c.5,0,1.21,0,1.83,0H58c7.37,0,10.81,2.57,12.46,3.81,1.84,1.38,2.74,2.26,2.85,3.57,0,.38.11.4.44.51a2.84,2.84,0,0,1,1.13.59,5.25,5.25,0,0,1,1.31,2.08A12.44,12.44,0,0,1,77,32.44l-1.06,11a1,1,0,0,1,1,.27c1.61,1.62-1.43,9.91-1.46,10-.42,1.08-.91,1.73-1.48,1.92a.94.94,0,0,1-.48,0,32.09,32.09,0,0,1-3.77,9.65L70,71.48c-.07.49.6.86.61.87l2.7,1,0,.08A14.55,14.55,0,0,1,75,79.9a70.35,70.35,0,0,0,9.25,3.91c4.29,1.4,8.1,2.24,8.14,2.25,4.72.57,7.32,2.34,8.45,3.34l.16.13-.13.17A53.65,53.65,0,0,1,57.6,111.32M14.83,89.6a53.64,53.64,0,0,0,85.54,0,15.15,15.15,0,0,0-8.07-3.1c-.06,0-3.9-.85-8.21-2.27a71.68,71.68,0,0,1-9.44-4l-.13-.07V80A14.37,14.37,0,0,0,73,73.7l-2.56-.94c-.07,0-1-.54-.88-1.31l-.28-6.28,0-.06a31.12,31.12,0,0,0,3.8-9.8l.07-.32.27.17a.5.5,0,0,0,.4,0c.29-.1.74-.48,1.19-1.65,1-2.7,2.61-8.46,1.56-9.52-.06-.06-.26-.27-.82-.06l-.33.12,1.13-11.64a12.56,12.56,0,0,0-.8-4.46A5,5,0,0,0,74.56,26a2.53,2.53,0,0,0-1-.51.85.85,0,0,1-.75-.9c-.1-1.13-.94-1.95-2.68-3.24s-5-3.71-12.2-3.72H56.78c-.63,0-1.34,0-1.85,0a8.59,8.59,0,0,1-3.16-.92,3.93,3.93,0,0,0,1,1.12,4,4,0,0,0,.76.43.27.27,0,0,1,.19.28c0,.18-.21.19-.28.19a8,8,0,0,1-.93,0,7.76,7.76,0,0,1-1.09-.2h0c.19.06.36.12.34.32s-.21.22-.28.23c-6.84,1.17-7.87,3.77-8.61,5.66a3.52,3.52,0,0,1-1.09,1.74,7.71,7.71,0,0,0-3.09,6L39.8,44.05l-.34-.12c-.56-.21-.76,0-.82.06-1,1.06.53,6.82,1.56,9.52.45,1.17.9,1.55,1.19,1.65a.54.54,0,0,0,.41,0l.26-.15.07.3a31.12,31.12,0,0,0,3.8,9.8l0,.06-.28,6.33c.11.72-.81,1.22-.85,1.24l-2.58,1A19.55,19.55,0,0,0,40.67,80v.13l-.11.07a73.14,73.14,0,0,1-9.44,4C26.8,85.65,23,86.49,22.93,86.5a15.17,15.17,0,0,0-8.1,3.1" style="fill:#f7f7f7"/></g></g></svg>